<mxfile host="app.diagrams.net" modified="2023-11-30T16:20:33.478Z" agent="Mozilla/5.0 (Windows NT 10.0; Win64; x64) AppleWebKit/537.36 (KHTML, like Gecko) Chrome/119.0.0.0 Safari/537.36" etag="bPMb8l9hQwMnmM-sIi9F" version="22.1.5" type="device">
  <diagram name="Page-1" id="H9GiYwJyV3jk2YdLJUAi">
    <mxGraphModel dx="1615" dy="822" grid="1" gridSize="10" guides="1" tooltips="1" connect="1" arrows="1" fold="1" page="1" pageScale="1" pageWidth="850" pageHeight="1100" math="0" shadow="0">
      <root>
        <mxCell id="0" />
        <mxCell id="1" parent="0" />
        <mxCell id="fA-UEe_n8p6ESNzPpI0O-1" value="Welcome Screen" style="swimlane;whiteSpace=wrap;html=1;strokeColor=#A50040;fillColor=#000000;fontColor=#ffffff;" parent="1" vertex="1">
          <mxGeometry x="280" y="60" width="210" height="250" as="geometry" />
        </mxCell>
        <mxCell id="fA-UEe_n8p6ESNzPpI0O-3" value="" style="shape=image;verticalLabelPosition=bottom;labelBackgroundColor=default;verticalAlign=top;aspect=fixed;imageAspect=0;image=data:image/png,iVBORw0KGgoAAAANSUhEUgAAAUQAAAFMCAYAAACzucWrAAAAAXNSR0IArs4c6QAAAARnQU1BAACxjwv8YQUAAAAJcEhZcwAAEnQAABJ0Ad5mH3gAAGVLSURBVHhe7Z0HgB1V9f/P9uxuNptsyaZXCDUgSJOOIB1ERbCggKCCov5U/MlP/dvF3gAFOyIoiPSiNOktBFJJICG9bjab3Wzv+7+f++Zs7r683X2bxtvd84HJzps3b8qdud8559w756Z1OsQwDMOQ9OivYRjGkMcE0TAMI8IE0TAMI8IE0TAMI8IE0TAMI8IE0TAMI8IE0TAMI8IE0TAMI8IE0TAMI8IE0TAMI8IE0TAMI8IE0TAMI8IE0TAMI8IE0TAMI8IE0TAMI8IE0TAMI8IE0TAMI8IE0TAMI8IE0TAMI8IE0TAMI8IE0TAMI8IE0TAMI8IE0TAMI8IE0TAMI8IE0TAMI8IE0TAMI8IE0TAMI8IE0TAMI8IE0TAMI8IE0TAMI8IE0TAMI8IE0TAMI8IE0TAMI8IE0TAMI8IE0TAMI8IE0TAMI8IE0TAMI8IE0TAMI8IE0TAMI8IE0TAMI8IE0TAMI8IE0TAMI8IE0TAMI8IE0TAMI8IE0TAMI8IE0TAMI8IE0TAMI8IE0TAMI8IE0TAMI8IE0TAMI8IE0TAMI8IE0TAMIyKt0xHNGylMfU2T/Pf2+dJY1yJpaWnRUsMY/CBR6Rnpctz79peySSOjpbsHE8QBwuZ1NXL9VQ9LfVWLdHS2R0sNY/CTxn/Ol738x6fIvkdMiJbuHkwQBwiVG2rll1feJ3VbmpwgdkRLDWPwo4J45c/OlH0OHx8t3T1YDNEwDCPCBNEwDCPCBNEwDCPCBNEwDCPCBNEwUgSaN9vbOmJTe4d0uKmzw9o89yQmiIaxMzi92hUdNdhEVk6GjJ1eJKMnF0rJ2BFSWJLvlmX674w9gwmiYewgWHGQnZO106LV2dEhBUW58rlfnSXf/MeH5Jq/fkCu/uP75JLvnix5w7OlwyzFPYIJomHsAK0t7VIyboR87P+dJGdfcbi0uc87Q1p6mtRuaex6Eyl3eI6MGj1cisqGY4QaewgTRMPoJy1NbXLAuybK//zmXDn8tL1l5tGTZdSY4T7mt6Mggi2NrV5oQ96au0FqKhsk3QmmsfsxQTSMfhATw0ly2Q9OlVHOeoOS8SNk6oFlThB3zpbD7e6M2wb721Uvk7EZLNlwMvOzOyaIhpEkba3tMmX/0XLxt94tufnZ0VKRZfM2yPpllT4Bwc7SuZsUCjHMzsmQGYeNl3ecNM1PzOOqG9swQTR2C3QXodEBK6S1uc1PWDstfj5mnbS30rXEScAAsFI4n2FOBD/4pWNkRHFetFRk7dLN8pdvPiHlq6qdIMbEhfPp6j7Tzym+LHw5JlgvmSnsssPncXsVy2d+foZ86ken+ekLN5wjM4+b7K+HEcOSOwwQBkpyByphmxO63PwsGVGSL2WTR0phaZ4My8uWjKx0L4LNja1Sv7VJqjfVS9WmOmmsbfa/SWUQ8DMue6ec86kjoiUijXXNcsP/PCTLF5RLVnZGbKGrTZlufuy0UWQlkI62Th9bpJU4FKhEIFqXX3uqjHfCpTx/3yJ55K9zJHtYZrQkMcQgEWQsPv5mZGVIxZqtvpz5jmrONfjyH86TMZPdsUW8MWut3PSVf/uHV6qmlduTyR1MEAcIA0EQEbW8gmw5/PS95bBT9pKJ+5Q4cchM2CDAbYd1iNV42w+fkteeWCaZrhKnIgjV+OlF8oXfnCv5hcOipSIP/2m2PPC7Wb6voMK60w8eI5/5xVneRfXdZWL/J0Wme2iEwkQZafeevvC/in5KWd77m5fk0VvmeIEGGmzO+8yRctrFh/rPgFhf97kHZMlr61O2/C3bjTHgIL42YUaRXPWrs+TCLx/nRGGss2qyemwdpdJnZKZL7vBs2bq5Plqaojjxftc5+3UTw2pn2T591+veEgtB6BEWhI2Yop93goQFmcwUb6Vh7SVaL9HEfmL7jh0Ty0LY9PxnVnZryeYYDz9tRvTJMEE0dhqsotETC+XyH5wmUw4oi5YmBzHF+q3NKeuuYUGVTiqUw07dK1oS49l7FkmNE/KEgp8qpxJ3HJmZGbJ6cYWsWrwpWhJj/6Mm+hbznek2NFgwQTR2CgIuiBluGKIYD40NyxdslDdeWSuLX14jKxaU+88bV1b577G0mupTd1gEwgCHnDRdCkblRkuIHbbI6y+u9tZVPJxH2JDEuTH8Q21Vo7OEG3bbVLOl0ccLG+qafYwWCEd0wxVxW1u7LJu/MVoQAzGcNnOMc80temYxxAFCqsYQiW8Vjy2Qr/7lfMkfkRMtjbmOD/7+FXn6zoWxwH5gSfHdcOd+TjtojK+gb83Z4IU1JL4BotvvEzRO9NR9xN/ewepeeBOvuh38Frf+0z8+XfY7cmK0VGTlok3y08vvloxE3WzcvjJzMmTctCL/Aeu5a9qNgoOlyvGkZ8X+4j5XrKmRuurGbg8bxHqvQ8bKl246L1oSY/ZjS+VPX3+sWzw0VbBGFWM7UlUQsaD2eseY7SrY6jcr5NqL/tlrowqVEyFLFMynVTWsyFhb+j5vTm6W/6uwLd7ycD+IlmyDbSNqHvc1rdzEO5MBERszZaRcc/P53YTi3t+8KI/eMrersSIejoffApWZ//18cHjUugSHu8OEtTg2HxuYKb7sOa7icQXy5d+d55NHKBtWVMmvPnufD1/0FPd9u7BGFWMA0ekbT+JJT3eVMXP7RgKF5YhMvBgiJgjYpd89Rf7npnPlC789V6769Vkycd9SL2ZU6OPev79c/Yfz5PO/OSf6/mwZPWlklwgBokCDxEXfOMlt571+3av/8D459JRpSQsiAjz1wDHbWU3lq7f64+wJzk0bN+hqxPkweYGKJn5PC3Ksm0z373qbkAf/O7ePcLnug4kGHfadSNj4nu44KxaWR0tiIPxlE0dKR1CGQxETRGOnaWuJi1U5JuxdLKd85GAnYtErYv2Ayj52apGMn1YsE/ZiKvFWoYrQm6+s89bNxL1L/Pe8PXLEGTO6NQq0O1d84owSmXnMJLedIr9uTl6WLJ9X7sU6GchAM3Vm90aiuuomLygxcdoxcPnfdfa+cuCxk/15IdBtfQgRljjhiZGj83xnajLj9NWvsScQ+vDhAZQ5D5Ud2+LgwQTR2CmoSNUV9dJY3xIt2cZ5nz1KLrv2VN8vD7Giu4e6vX0RVliEAJfZ7cxbODTKPHv3oujbGIefureUTBgR+53bBW7WMe/dr5t19/AfZzvXcIsTsyRcQreNDGfhknorhC5CdCbfUbeScigaWyDnXnGEXPnTM+R///wBueDqY2XKfqXRGtuDRXikE/yrfnmWfOWPH/Cu49Hn7udb6HcEjn3Nks3Rp21Mcla4K+IhjQmisVMgLpUb6mTRS6ujJdug4r3z5OnyuevOkSt/caYc+u5pMsxZaT5hQR/CGLqkCAJWlFZWhOrRv82RDcu3xBY4aCk9+uz9vOBgbY3fu0jeecq2rjJ0/H7pwTd7jPvF0+H2P3zkMBnt3MgQfQWRB8GOgGCPnTrKW7i4y7TMn3j+TB8ioJ8j5xoPZXXIydN8w05hSey1wQOPnuwbpnbESsS65Q2VeLd/giuzHT2vwYIJorFTUIGo5I/dOtd3LUkEDSQHHDVJPvnD0+SLN75XTrpwpmQ7V7E1gasdg4q6rbLiuhI/VBBhWk/vu/Hlbpbk0efu690+Wq7f/eGDu6zD6oo6uf93s/y6yVZ4hIZ3l3ntMKTVN8q4fe6gbiCCdFqPhy5JlF+i1nLEeY4T9BDCBJP2G+2t5x2huaE1LGIPORizc8nQ3X+RHSyYIBo7DUF8Ovze/uNnpKGmOVqaGN7TvfDq4+TzN5wtBx6TOLEA9TG0lDCC2p0ohmRlZ/q3Lp6/f3G0RLzVdaIT2+kzy+Sw98SsQ7Z193Uv+n6PNHD0B1L65xVs60oEiYQkWRAaRPbgE6ZES2LQV/GpOxd6EU6k11jayxeWe3e9C7feseft589vh0iwI6znbB4iO7rNQYAJorFLoFVzzlPL5bdXP+wzwPTF5H1HyxU/OcNX6kSiGLYEIySxltVoAbh5LEXeJw73d8Spe8snvv8efzzw0kNvOHd5uRfQ/oDQ+H59cY0nTXVO8BOIVjLQuERi2Xg3nE7evTXU+Jbh1Vtl6ZwN0ZIYM90DZeI+xd3KamegjGh42mGRHQSYIBq7DERo+fxy+eWV98u/fv28lK+ujr5JDBWdBgW6woTv11IhuzW+uNlEsTIEpGZzg09ioG9lEIcrHR97Y4Y3Mu654SU/n6Sn3I1E7mtzU+wtkP7COeHCH3F69/eGEXvim8Q9+zrGWf9ZEs3FIOxw0oUH7ZCA0b0m/ly4Hrz/vLtyMg4ETBCNXQruM52kH79tnvz8U/fKrdc+5VuFe6q0WCVnXX64fzWumwh2E8CeKyhu3sLnV8sLD2xznZWn7pgvWyvqvSW5IySKpfE+8I5A9yNa2/c/clK0JMa6pZWyeNZaX269ke7Eatm8jT40EXLou6fL3u8Y2+2B0hcIL7HH5sbuMdw0V07eSu25uAc9JojGLgfLilhUY02zPH/vIrn+8w/KH7/2yHZJBRRec5tx6Lgd6hSsrbYkKIjntEveucNjnSChiVp8aXjoLwgrwn3yhw/eLo753H2LfD7Ivhp7iCPyCuQLD74RLYlBP8YzLztMcoYl3xjCaliDw/Lj3vhxD6EdKavBhAmisdvA4sBNJMaFW/jrzz4gT96xIPq2OzMOGxfNRXRzVxOLBRUYN/39n3tXV1wudK3pHH76xYfGLM/ktGIbbpfE/EjkEOJFpJ/bYjsHnzDVNyKFkPiC+KbGO/sCUaUcN0SJMZR9j5ggx73/gH51gMcSzI6Lq2LFYmkO5a43Q1wQubP7W1OM/kIFQxiJWd1z/Ys+8008Pi1/VA+pj906PrvZRPE84m7Hvm8/mXlcrNWWYTwf/vOr3bK8IBQ0PvTcxScxHANZY+jeE+Lfzc7c/lh6AguWPpJnf/LwaMk2nnQufW1lQ8JzSwRlUrulQZ765/YPlTMve6fsdci4fr8VFIIY0oo+hPVwsAoiItfgplrnHtRJS0udNDbVS339m1K79SGp3HSjrFt1rWxY+33ZuuU2qa97URoatkhTU4OrZLXudzX+t7FtDG0XYldCqy2iuCouDgbx7ikunaICGa5Bv0Tevz3149uyP7/6xFu+b+L8Z1dES2LbIUY5fGRcjLIPECle04tvGKIrDuGAZNxTv4o7dlxahlIIWfPmZnnlkaXe6usPWJOv/GepLI9L4YUr/8EvHiMjR+d365vZExx//Blgyfu3X4awIGZ82xHND1BapbXpWfc0f1nWb1giq1YukqVvPiOLFt4p8+bcIy+88Iw89/xseenFOTL71YXy2ty18vriZlm6LEPeWJIhc+ZukVdfWyWzZs+TV155XhYseEyWLL5fVi1/WFavelo2V1Y6wVwnaZ2zJSPtNVcxx7nKQpaQ6G7fQ+C6vfTQm9LS2Ob2nHzF3lNQwXzyhfZY5+cwywsgDrxfTJzwXWfv49zZkuibGG/OXievv0COwTTfgIBlx5sYgNUz699LpKayMSaM/vQ75aKvnSiT9xvt12mobZY7fvqs1DgLqnJ9rX/VTbNZF5bmS5OzfJa8sq6b0PYG54ClyRsh453rreBW4uYynkpflh1vtZz84YPk9EveGS3Zxq0/eFLWvVXZdYzJosdV7SzLQ0+eHmsEiaAfJmO5zH9mhRe3no6PoU5HTyqUY8/dv9s12ry2xie+7an7z9uFv5vccfrXM8ePiJbuHgaQIDa6C/mGNDdvkU2b5subb/xdVq+8x4nda/Ls80tlsXviLnmrWso3dUhjc7G0tE+X9s59JDd/mhSXTJTS0WVSUjpWioonyKhR46SgsExGjCiTUUXjZFTxWCkuKpWiojGSlz9ROtP3lpa2faWhearbXoO88eZKWbKsXOYt2CQvvzxHqjbfLRXl/3LW5gJnLeRLVgYjrhGP2ZZEdFeTqoKIZUeigUu+fbK3TgoKc72rSaUlnhcTr5hlQ7KFEy88SI557/7b5RJ85JY5Ur4yNnJdRkaGHPe+A7pS9mPxYE2RCBVBRGiOOHNGt7FB6JLywgNv+FZr3q3GTVWxBDqEv/7Sau9Wd3PHewFxHzN1lOx7+IRoScwSW/Tiailfs3W7cwjh/A85aZp86CvHbyfCiA5uL68gUtH7C4K10ZUVeSgn7dP9HejSCYXeGqXTOg+oxKGGdjnePXD2di52CP0hFzy3ckgLYgrnQ+Sw2t2T/wFZt77RieB697dc6huLJCurwF3oEndDDvP9prIynQvjCq29rVUaGxuci9zibuY2aW1tdW5wk1vW6Ofb2trcchIMMNwjlbXTVY7YoD5Uwky3nezsHMnLy/VTZmaWn/LynOhlxV7yb3P7aG1tc9ttcRV+i3sSV7rfN0lpqbs5J06QcWM7ZHTZUe74pru1d6yLRiJSNkGsEyuSApCkgJsWEdxSzkh6rnwi4aZKYvUVOZHiTY14yJ14w+cflAYn+mwDUfu/Wz7oKnfs5kdgb/jCQ95NpIIPHzXMp/IqGRf7HjePslm9qMK34nJMiMJX/vi+bq3Csx5ZIrd897/+micD25m8f6l8+Xfv6yZqDIr13L2L/b23He6UOZ6Djp8iH/v6Sf5hEULewV9fdb8X5mSt1UTg/ueNyJHP/epsP5hXPHOeXC5/+96Tvuzi90Oc8NM/Od1bmCG3/ehpec6JdcLzehvxguhOYU/kQ0xBC7FR6moXyrKl98usl5+WhYu3yPqNeVLXMNZZe/tKVk6JuxmGOUuxSWpqqmT9+nWyevUqWeMm/q5YsVzWrFntlq93IrpJKp3LW1NTI3V1ddLQ0OAFsrm52YsmE59VNOvr6926W/1vNmzYIOvWrfPTxo0bomm91NbWeLHNdjdNbu5IGVE4yU1T3TYKnWC3yVvL1svri+ZJbc0rznKskoLhxGR6zmSSLKlqIWKFHHjsJDkoatjg4cLrbjSSFEYT8/QzTBQvI73+rT94SjY6odCKi+WFBUOFB0SW+ODm9TV+/twrj/TvRitzn14hT/9robdsEFQswK3OpRxZmtdtjJcxU0b5fny8xpesFUR50zo8omjbO83s49XH39peWLks7jvevvnQ1cf75BAhxCRv/vYTsnF5VdItyz1BOXNPEOM85MRp25UtXZGmHFjmkzgQLmD9baTJkWfuI2WTusc1n7htnmxxD96hbCGm0Jm3S1PjPHnx+Z/LXXffJ/MWFUhnxkx34+wnrW1ZTozWyWuvzZKXXnxeXnjhOXnllVdk4cKFTgRXS0VFhVRVVTmxohGl01t7TD5JaQ8T1qJaiIkm3Ya/8ZxYsv3NmzfLqlWr/H5nzZrljuN550K/IHPmzHau9QZXodMkv2A/GT7icFlfvpc8+fRyue/+P8rqFT92laX7WwaDh85u6fX7w+o3KuSmq/8tS2av716h3c0f9tfDuox13+mQvQ8dJ0efs2/0TcxSmv3oUm/NhXUeUcSK4z1hBcE97eJDZNjwbH/t+4Jt1G1t2q5VfIJz/UeWDt+ukYYkDIwieOx5+3eJuYKbf+cvnpNlczf0uyGlJ7DklsxeJ3df/6J/UMRTMNJ5Ou7hFH5HOdEYRZbzkI2rqr24ppoY7mlSxEJskvL1N8kDDzwntY0zpWDEXt6aW758mSxdukRWrlzhrT0ED9cXEKpEU1+wTrOzCLdUbHaVgo6tfcf94vehE6431iXHhVhilWJJ1tRU++8LR06SDc66fea5RZKZNksmTznQba37UzlZUtVCxIUlJVWBs6B852CWRctDiMfRqNKwtVkWPr9KHr9trtx34yypWFsTJxBpku7KjhhgdXmtz1+4fvkWWfzyWqlxVh9ve5CRhQaJ8lVV8ta8DV74uJiUucI26muavWggauuXVXrLsNZZaQx01VQfbzUlBjHBCn7ne/bylivkOrcf13fVok3d3FG219rUJgueW+XdeSxSoIHj7l+/IC+QfgzLsO/dJg0CxoOFv2FM8Jm7XvfWaFVFfbdjpFFrvBN0RDtkyavrfAy2rzdm3g5cbXNlO4RiiJ0dy+WOO66XtMwT3ac2eeONxd7qw4rDWkvmxk0WtrW1qlrqnBudmZUlJWWj/T52FRQnE/vJdWLLfENDi4wc2S5XXH62TJl2erRm/0jlgeoRDVJ8YRXRvWVEUa6PnWUhkO47xAfXmMaOui2NTqCafcsxla+nltCeoFz7c8uy//7uI4Rdcft98tpTu/o7Au9JX3fVA95KjL89scKwaC/6xonenb39p8/K8/e5hyKv/e26W7kLPcf3f/5dcuIHZ8rjf58n9/32Jbccwey+Qxp7PnLN8XL8B3g4bwPxfPnfS1IufgheEF0VHTJjqrS2Zktr+zQZ5irQ3LlzfPwO60td1l0JlckLituub2CJuonsKtiWijiuNhZkRgaimCUVlduPPTIY4FypaFXl9d5aWeAswOfve0OeumOBH3WPikaXmvVvbfEWGtCfrzehQojCSYk9cBJ/lwj20Z/14+HWQLyfu29xt9faps0sk/2Pnuhd4XiwyPjNP374tPzw4n/Ji87y8lbarr2Vu+AcEeb7ncX9K/fQfPD3s9yJbi+GnDuv+jE+TQhpxZbP27jd+kORlBDEtLQO9/R0lcq5w4jIrrYKQ7xguccNT1VakHE1+mNx9Af2pecR+7N79vO2486NSum7zLiKj1uI4GEl+clZHSzjO+JyyVxa1gmnkN6+S0R/14+HvoIkcJ33zMpoCdtJk3M+dYQPFyR6/5eyoLWZrN7M7677WaFceRtnyZwNzkJNbBXTh3LyfqXduiPBopfW+Aar3roRDRVSqATcReS/3XzjQG6ec+eysyQ3P9dboYbRG9ySiMlDf5ztW4oVklLwFgrWGQ/YeLiXw/jd7ob9+TBED1WIIzz4xKlePBWOHQt+d1mvA40h90jAGszKzvaxw+EFBbvNOjQGF1iJ65Zulruue96LiHLC+Qc6S/HwyNOIFqYgCDaxXe0epWD50si0J4U7lRmypbArG1KMoQEdxl9+eInP0h1yxicO8/FErMhUhVZ+hnalu5BCnPPZu173rv2e8MwGAqYKhpEsTjOwpB65+TV58A+znKUYix3S17FyXW2vjURvN7wmuOqNTfLnbz4md/7iebnjZ8/KjVc/LIuchZiKLctvFyaIhtEPvCXl/n/4T6/JX/7f41K9qU6Wzdvg+0qmcqdmDrutpUPmPbVC/nv7PP8u9eJZ6wZtO9+OYoJoGP3EN144S3H248vkZ5+6NzZuixOWVPc6OT46wWvrv++EneLHvKcxQTSMHcEJCa4mFiLvYVsfvsGBCaJh7AS4ybxrbQwOhuSVxOUJJ8MwDBhSgoj48boeiSPqamqlvpbhBWLZUEwYDcMYEoKI2NEBu2brVtlcvkmqK7fI1upqqa6qkspNFVJZsdlnwElpUXTHn+YuV3pappsybLJpyE17okU8JbLdtLasln/dfZ9kZU+S559/1idw3ZXiRH+xKieCKnp8ZmKeV/coAjpqjxw1Uobl5+2WgifTyUUfOUsOP/yUaEn/qNpUL3/+xqP+RfxU7t5hGLsaFIrXDS/6+oky/eCx0dLdw5AQxK1bqnw2bBXDsjFlcvgRR8qG9RtlzmvRWwdYYE4ci0uKJTsnx4vkrmRnBZFXr8jrl2jwdMMYCuQX5vgkIbuTQS2IbIP0WySDVYgZnvye98ixx58g9XV18te//FmqtmzxFiJFkZefLyOLYok9dyU7K4iGYex+Br3v1dLU3M3aI5NyTs4waW9rcyKV2eUyAwKKW03Di2EYQ49BLYgIHVm3FT4jfZrYQYUwFEzmO5wg7kqX3TCMgcGgtxBV1jo7O6SgYIQUFRV5l1yT0PL9pEnbRnBLpfFKDMPYswxqQUTwyPKB+JHDLicnR/bae4asX7fODwr1+usLJWfYMCkbM9Y3tgDZtNMDN9owjKHDoHeZGVXvwIMOctZhgWzaVC51dbV+8KeXX3xR1qxeLWPHjpMlb77hxDO2Pi3MlkXbMIYmg95lpuGEluZ99ttfGGVv6ZIlsnVrtUyeMkWG5w/3A9vz5grONZZk/vB8ix8axhBl0AsiIlddXe3jhocceqiMHTfOC97CBfOlvHyj5Dlr0ccS3VRQOGK39EE0DGNgMOgFETKzMqVi8yapqqqWsrFjpbKy0rnJb8qyt96SVatWSYYTzVHFRc463JZe3TCMoceQEETAdW5orJd169b6eQSQDtijy0ZL8ehSGZaXF61pGMZQZUi8uhdP/Lb3RBHYmyoDC/qvvvzyyzJv3jx55ZVX/D1y1FFHySGHHCJHHnmkf+Pp6aef9n/7ulfpwTBhwgR5xzve4T2S+fPnb9dwx/Zp+GMf2dnZ0dJtvPTSS75nhPahDeG39KA4+uijJS/uwU78/JlnnpHW1lZ/nBwL69H9LBELFy6UlStXRj0zOmSs86je+c53Rt8m5rXXXpP169d3/aakpMSfB3BsL774omzZssXPUwYTJ07s+o5jq62t9Z/LysrksMMO264833Ke3BtvvOHn99tvP5k+fbqfj4drtXz5cl++/OUcDz74YF/2XDPKty+GpCC+HZggDhw2btwoV1xxhTz88MNeSEIQsr/97W9yzDHHyN57792VPq4vLrzwQvn73/8uZ511lvznP/+JlnYnKyvLC8kPfvADOe6446Kl4is3++O4egIRmjVrlkydOjVaEoNj/fjHPx59isH+TzvttOjTNtj+scceK8uWLYuWiAwfPlyee+45LyyJ+Oc//ymXX355l6jBEUcc4R8mUFNT40UMwYRbb71VPvrRj/r5++67T8477zw/DwjYo48+up0AX3bZZfLnP//Zz998881y8cUX+3mF87722mvliSeekLq6umhpdw488ED5yU9+ImeccUa0JDFDxmU2jGSgAe6CCy7wlRUxxOrBSho9erSf57VOYtCzZ89OWgzh8MMP99Ya1pRC6AZrUB/+7O/ZZ5/1AsM+FPYViiHrhxNMmTJFxo8f7+eVqqoqLwLxhNsOWbFiRTcxBATmqaeeij51B5H76le/2k0MQY8JVq9e3SVSw4YN62bdvf7669FcDKzIO++8M/oUgzLGYlUQtpCf/exncuKJJ/rrpfvhwTJy5EjfvU7B8mWdvkgdQbSGXSMFuOWWW7woQX5+vlx33XUyZ84c7zb/9a9/9ZXvoIMO8pYU1g7THXfcIZ/73Of8b4CKf+ONN3qLEAuNv5/4xCfk1Vdf9YILbJt1sIgQgVNO2eY5LFmyRB577LHoU8xCVLDU7r33Xl+5+ct09913++OOd7X/+Mc/eiGIBzc1EbjlCi64uvWcfyJ++ctfdrnX4b5D0cN6w0qEyZMne2sRCEn8+9//9vMhDz30UDeBLS8v9y4w4FKPGTPGz8NPf/pT+cpXviKNjY3+87hx4+Q73/mO3wbhDMoWi1KtYR4afZE6gribPWT/NE2P9TVMNIVPNWNogvUXVlLc189+9rO+IvJ650UXXeSFCjHEYsT1Y8KipDIqxMlw6z784Q/73/B31KhRXljUqpw5c6Z3BU844QT5wAc+IF/60pe8xaiECUZCoTrnnHPk3HPP7frL9L73va9LaJQ1a9bIDTfc4OeLi4u7uaY9CRyCrXDu/A5CC01BpP7whz/4eWKCnI/y3ve+N5oTWbp0aTQXc+sLCwv9PGExYoOA+Ko19+abb8rixYv9PKxdu9bHTuHQQw/tEkQE71vf+pafB9zsJ598Ur75zW/Ke97znq6HFtfh/vvv9+KornpvDFqXGYFTocP4xF3ZWrVVtmyulIpNm2STe/Iwba7Y7NN/YW5zE3rhjCZjaMH118oHuJxq3SiIFvdVPMTZlOOPP76bu6aE4sD34T2G+6mJSHD31DXE+pk7d66fh3333Tea653f/va33l0FBBfRVsKEJwpNCeouc1zEPIkfwoYNG7YrByyxrVu3+nmEPfZyQwwVLRpYwnOmYUOhcUl/wwOEuCMQNrj99tv9PCxYsCCaE984gtXKdr/3ve91WYZYpP/4xz9kxowZ/nM8WK+IpDbm9MagE0QvZu6GbW1pdUJXJWvdTbF8yVJZtWKlbFi3zoshCWNrnDgyVVVulvING2PruSfWimXLpcIJZQMJZd32Et38xuCEihNaOsT7EIbQYkkEFZP4m4IlFA/r0AqqnHTSSdFczGLD/VPe9a53dTVirHP3rMbGEGMEm1ZbLCRie7jy8Q0/ixYt6rLeaFnFnaexRUUatz0UfsAtV0uQxo2zzz67y0qtqKjwAqaouw5YkjRUqPgiWuqaEhPU8AOo6MEjjzzSJbK03GPNKZybfofVp2AhAm44DSjK1772Nd/AtSsYNLVdrbqmxqYucSt3TzaEEZN8eH6+N9e5QUgCm5uX66f8/OEyYsQIGVEwQvJy83yB1GytkdUrV8myt5Z1dRcwYRwaEOsLu67QIktlpRUzdGNDEBNt9EB0tMtJCBVcu44A28XVxXJhwlUEhCsUR1prtRGE/X/xi1/03WaIZSKqbENbcBUaUvQ3uOxYm7j0xC0B8Y53m3FN9Rx4MFBPaEwCLGXdB/E9WsGx0qhv3/jGN7x7TkZ6wErT7FEIr8YDqT/Tpk3z8xBanAgdrr/Cg0gfMOEx0TAFd911l/8LiO/73/9+P89D5zOf+YwvFy1XJsIS99xzj1+nLwZFLaewW5pbvBCucGZ/c0Ojv/gIHQFuzGwuHsKmkxJ+ZjtZruCpEPyWN1jK12+Q5Uvf8tYmJiPbMQYviN/vf//7LjEAHopf//rXfVecRO4mYsY6wEM3viUUEM2wdfeFF17wVtbjjz/ul9MySsXGcjrggAOitWLipcTfu0DLcti6jHVFIw8Q5/yf//kfP8/54IoD29DjVbAqlXe/+91+XYREUQuQhhqsUqCxgm5EYbigtLQ0mhN5/vnnu7m1NKoAFi1WrkK8jzILz5tuNlimNDAB5apCG8ZUaYzS86LV+ne/+523nClXnWhEChumemNQCCJxQIQQ67BwRKG3ABG3RDdQMuhvsCwRRp5OuNurVqwalH0kje4QfKfSfehDH/JCpSAGCFY8YVcV4meJOgDTdQarCnhYIxCha81D+JOf/OR2rl8oVDSk/OUvf/HuMNNNN93ku51oYwwW5M9//nMfLwdih1iGuMdYeWFn7HhhV5EDXFgIW2URJtx39geUCw0YEDa6nHrqqdFczLpViN8h0MCxIJZAww3HxfmffPLJfhkQXsCKVcuUOKM2yISWemh1EvPEiqSBhXMIG6niG516YsAKIqJEwax15joxPwrUuwROq3ZEBBOh26FguRgd7slGjBGX2kRxcIM1QqCebjfhtU7UqTq0drCuwoqohA0juHG0sNKqq9YkDRS4ymFlZxkWn4JAX3LJJb6fItOnP/3pbh24H3jgAd/lRKG7D1bZPvvs4wUhdJOxUEPC41PhwrtS6L5D2EAFClecWCfWbdifMLTyQis0FCTcaBVkjk2Fl7ildvXROKmy//77e8MEQjEPQ1lsi5glDx+umz7MENxkutxA6ghiPzSMG5TuC6uWr3DucVPMvXUFuauEsCdynejmuptkPV0BnDlvojj4+eAHP+gbCpR4ywprLBSTvfbaK5rbBi5i6PqqVYPoImwKVqm6iECcTRtUuL9DaygeWmwRVLVCAUFFlHQKG18QG12X+OGmTZv8PC6vNnAQz8RLAho36IcJWHXXXHONnyfGpy3JWLwaakA4wwYVjf8Boq1WLOekwsU6+qYN9fuWW27x8xC2rocPHNx1fYhQH3VbnJ+661in8W/w9ETqCGKS2sJJ47aujGIC5C/cUyC4PKUwzX3XHTeZKA4OcOHoYxgKCtcb1y18SyTsOgJhKzCVMVHXD34ftlSfeeaZ0Vysi45aRYha2JpLZdfGB4RDOzxzXDopt912W5fVh9vO63qXXnqptyjVqmRfiooF0NhDB2jg3taYJFYZfTCBOqcNJ1deeWXXeRKb0zKjZVwFkTJRa5I6Er76F4o++1CIBWIlKgg10FBFnFHRWCTQb/RPf/pTt7JgPmy0odwSdYNKxIBymSlYnnK0AGdmZHo3OSyIPQH74wamVbpyU4WPX5ooDmywML773e92NRIQK3zwwQd9x186VatlhSiFMTIg9kbwHxCiRA0qtMKqqHLvhP3hsMi09RfCBoPwNT/E8te//rU/Jp1o6Pnvf//rLcFf/epX0ZriY5FYczRMEHPUuKM2sAACRywPaBRSyxfhUdeUzuTUsRBinOFbOexfwZJWCy2MfXK+KqzUH22ggfANHeBzfMgBoQxdblqS9Ri5dpwX143WdcqBBwHnrBB/TJaBI4hOcxisfd3qNd6YRPF3RAz5Tfzk/om+TQ5+Q+zCW4ruyVpbU2uiOIAhpoVgcV2JESIoNGDQ+VddSSrl9ddf3+2NFIjvf6gVPyR8fY6KrTE6wP0MrZ/wtTrdN2CJ0t0F4ea4mH74wx/6lmqETwWIWBmCkQhiaSoknK+KbxgDpDuPgjARjgrhVbnw+ENrT/sJwr/+9a9orvs5Y/WpJUvjU3yfTWKwoQUIiHB4HMRNKQcVX6xdLEXeq6ZbEg8DfUhRL8M4a18MGEFMc/9tKt/on2z9tQx13fT0DB8Toe9hwYhCJ2gjZJgT1gxXsGlp/WuVZj2e9mTcZtAqrAgTxYEJYve///u/vuJxb3Edmbi+WEn09aMjcOjqKvS1i91T+b6xJBG4pDzAmRAc7SYCLKNVlG3QiKENGbihWD+si8gmmrAu6RRNyze/o+GPVwD1TZF4EEusXM6R/aqrj9vLZx7w8TFQWn5Zn/NjX+HrbwgRliX75nhoZFEQU8SX39IhW8MCrM88+yNWye9CWP6pT33KCyAPC8qfxiT9vYL40b2IuCNlhIGi1w2h5Le0NPPGTtghvC/SXMXun3m0G+gr/RfzDXX1smrlSv9UCVuWeoNTY11ELzcvX3KG5bhtdX9vWU+/zQkaF7ixvt6JW9857kJwZxi9b8Jk5wr1UJqW/iv1IdCPpUULJ24osScEDCsmvkIqWJdYb4gCsTe1WkJYh3gaIoGFSaUP4f7BrUYEw/6C3I/xdSGE5QgV8T8aTbAAEcPe6gev4dENh3qEi8sx8RlrFEFl/+HvedBj1SHOuL7ayKLwO6wxBAhx02MlhsfvEETOWS1T6hvnyjmzvTBcoLAvyp/rQVlpo2kiEFjOCasTV5zrQHyThwznk+h69MaAEESgRZlD5YSTOWTWoVV4ROFIdzHcRXSb6+13uj8uRoN7cta4C9LRkdyA9WyXG2Di5Eky3F28ziAwr5ggGkbqk/IuM4KEOPG04OnUlxjyPb8ZOapIiktKY4NG8V8Sv2Pi6Vjgniyl7mmX7IBT3gp1Ql2xqSKhGBqGMTBIeUFEkCo3V3rBScZaS3frjCoq9qLmfpCUoMXDbxDDktFl3t3uaxt8j1g3O9Guq61L6jgNw0g9UloQEZaG+gZpcS40MYhkxK3QiWHe8OE7JIQh/J64xajiEi+ObkH0TWI4Vo6xOurKYBjGwCPlLUTcZQKjfVldCFhe/nA/lOjOiqHCdgg6436TUqw3WBdBbGio9xl2fN8gwzAGFCktiIhMXV2tF8S+RA7hKqB1bhe7q+yXFuT8goI+j8G3hLlV6mprneue8s8awzDiSNlai0VITK6jvcOLXW8gVLjJWazXh2jtCGw/f3hBn8cBiDddCvoST8MwUo+UFkSERed7g1Ze+hnuThDDnD4aWPiO9byQW2uzYQw4Utqvo09gXx0rEaGsrGwvRLvTKkOUk2npRpxb21r9sRuGMbBIWUFE3GicCHvN9wRdY5JZb2fJdOLc1374ntcMsRD7Ek/DMFKLlBbEpsbGpEQlvYfXenYl3h12lijvQ/dliTLcqbnMhjHwSGlB7OiMWVl9CtAessT8fpLYFxaiO+jok2EYA4WUfZcZGNyJvn29te5y+EUlpbu0/2GPODEsX7/eHW/v46rQGDR+4gT/LrUe01B8l5mEomQkIbkBWUsY40Nf5ucFf3LpkRmZ65so7ROQjosUUyQ8IHs1ZUuuQn7X14MQK52EriQnJYMyef8ShTy4RsSHGWBd00yxX5K1hkkFiGeTFIGkpqSr1/2T3CEc4L4vSC2mWV641xkRjiQJHAfJDMiuEw7WpFCOd999t8+wQ2YacjWSPAFI8EDWG7bHOTJAVKLs3axDeZL4gMHr9XzJeMPgTBr7JvFCotyEIYyZTLp+fkNZkwGcjD9aZiTKiB+qIITzJXmGjiNDmjRSkrGc8yLHYZgZCLj+DJVAeZFMg4G5GNOGbER9hbPYLteQ8uX8E5HSyR1WvLXMF25vb6mwnLdJhifRT3BXsJFUX22t7LjHC1DvLtqESRP9za3HNBQF8dFHH/VJV4Gbl0GHNBszOQdJxKqQZorKGgoQFZ+UUqTPIpsKlRbxIAN0snz729+Wq666yqeCQoR7ggpCZSRVPdmzEWhENxGsi7iTj5A8f+QpZDjOZCEdv+YdJE3+xRdf7OcVKnyYOVrhdxwXIFSMy6IPEVJm6VjMQGotyj/MrEP2HHIWUp5koGGMFY4fMWO74RgmXAcyUccfm0LeRoQlHDeFhwXDKZBijPsesdLxm3uCe4CB7rnWHEM47guZuUnfFYJoc69wzDzoSKL7hS98QW644YZojd6hPBjLJkw4G5KyLjOCSIfovkXOudYde6BF1x0PrxAWuifWqa6S7z1jn54TOSCW1jG7W5JQUjJpklDSNWHlhTD+RpgtGrjZdSxjUnFR4ebPn+/vDZ3iCb9DNBBkKkAohuE6OiEsOswl64ZiGK4HpKYiKauOn4yVFL9OSPgdFrImmUUEfvGLX/j5EE1uGk84RglZoHUUPTItcY4hDD/AgO4hWHRaDljEmpwVYQ0zXANWX5isNgQrjUSxoRgC21MPgJH4GJJBCctAJ45Bh2QgPVo4kD9gdXOvhGAZanyehwrbQUTD7cYTfqd5FnsipQUxOye76+R7hsHpG5NYb+egmFtdJRkzdoyUjRkrpWWucicofAScKT0jlnB2KEOFV7C8tAsVFYocfCEIEGPohoTjYpDfjnsCyxIL6uGHH/Yu9+mnnx6tEVsHq4jvGMgIt5dB48OszowKhxjzHRWOic///Oc/u9zP8DiwWrDM2Bdp6cNs0YQDEMfvfOc7fhtsi32HY5fgurI9lrMOIoEFBVh0KgKcmxJaaiEImoIFyAMCEA19cIRwTiHkC9RxUbCu1MNhvBcVYR4ieiw9CTMPAxXbsCsawyeEoQDdFyJ58803+3PXMqc8cHMJPQCWZXwdRlTjRT0csoBzYN88VLT877///m7jt2hyXy1/7otE4Qglpc0YzHYSt/YGBUISy1jsY3uB2lUgblTaktLR0u4uXEX5tidVCMfBcYeu31AE6yG0OkIXhXFIdAyPsJyIj+n4JRAKg97kCCuxJYQQC0FjYHD00Uf7uBffkd1Zx/kNB1LHYiTzNWOjMK+ftWJC6Lbh9iFq7Av38aSTToq+2fbwYwgAtsG2EGCsGOXcc8/1osoxsQ4hAEQHS40hCQBLj/ioEm8pAe5uOP6zijcwjAEPGeCho0KHkOvodoB1rRAvVXTUPAjLlHIgPhqCqBIqAJLJcl31wR+OFRMKF9Y95cD10DKnPLhe+pBU4aNsdKAqiBd1vTbUexVfMmJr+XOfhFYloQ2umZa/Plh7ImUFkUL2Mbhovjc6nAiR6bqX89xpyKI9fHi+v3lxnatchY8vWD63t7X7N1r6CvAOdqikOlYHoodQKKHQEYQPXbfQIlCXi0qTaBhJKmu4rXAfCsIbDtYUCl8iEPLQeg3H/OA+DCsbFTEUZMAq0tHiQIf0jIeYl7qviOGFF17YdT9pw0YI1pKOyEdMHcFXwvNjuQoFlp+6vRx7OHB8mKk6HEYV8dc4Lw01OsyAQphAR9NjZD8NM0BY/qEg8sCIbxyJR0clxOplyACFeK5eD66NDtbFcAjHHHOMnw+h4UkfSNw3/Rk+AFJaELXDdXtkTfQEN1JDfV3M6tgNqsj2692NMXbceO8ibKnc7C5OZULRa3HCiZDHi+VQgxtTIWYTtiDrkJdYA8SitAJi5ai7isulcTxcnJkzZ/r5EFxq3RbXIhwkXaHy6rGwDiPNUcnUDWa4gDBeiPWqFZ7jpjJzL7LOj370o27W5vnnn7/dPYAFoyKC6MQLJmA543YCrcWf/exnfQVXq49QQ3zsDPHUmB3rhcN3aksu5UmDk5YnaHliYaolyDADOiAUFmQolDQ+MQHWuo7MB5QVri/g9uOOqheA+ISuqlqsQPkRH6bMmWgYCeOPuOYq9jwMsORU1Fmuoo7wa7lQbolaisNz4b5hvf6Q0mYMokLShhZ3YfoSGC5e7datu9xpZr+NjQ0yLCdHJrublgu2dMmShE9xXVYwYs+0eKcyYesiDSoa7+IJr64blg6CEw7ted999/m/NCDoiHZU8NCNUkKXHEsl0eBKNHioVcE1YfhOXDcqHW4U1hnWl4J1p+489xSj27EOjRi0JBMm4Z5gnGOsungQDQVh0XhhyM9//vMuq+eiiy7yYs+xa+VF/EKrD8L4IWWhY5sgaHp+PIgPO+ywbu4w8VaOmTiq7pNGHT0urCmN9VLOWHlhWfPwAMrk2muv7RJ7hv7EOFCRRcBUiOMtfdxeXHHKHAsWryC8PyhzehAAXXBwpUPLk/gfsJ6GVMKB70PChiesw0T3TW+kvF9XOLLQF0JfAsNNWl9X6y25vsQzWdgONwIDXO1/4IGS55745e7m27Bu/XaWAetynHn5eb12ExoqhENbcmNq9w8qoFoDDHKECCBMCn0FETosARWmRJYfhJWKWFaiYLm6pcA1wdJjwgJl+/wmrHyh+4gF+o9//EPuuusu79IhLFi6jI9M/C+RhxCOOcz5cS+EUGHZJuCO02UEEERtNYbQMoOwBR5RUZcXIVExYXtsB0HR2CxxR0QN4VJLOXxw0Dqt1hoWMZPG9UCvIz0GaJQAHg40boXnyoNNLbbKyko/KZSzljl/OfbQveYYVehYjgX8iU98wn8GQidcizAGShw5EWrdQ6IwS1+ktCByA1N4We6mooU3GaGrdq5sozPXd1YU+T0WX7W7sFg445y7zHYXzJ/nLvD2FivHygWnW85QB3cpbFgIg+1UXhU6LEOsDKwadQH5LX0N1RWGsCEjJHTLaWxJJFBhJSKwjwWKwDFhudAPjmMAKmvoclGhqOih28u5EDvT34RgaYX70w7HCoLKYOq4r0BfQ0QES5iHROgCqkAA8xpjg1DQKE8VT8QEMaMRRxux+C2hAR40Cq6uQmdobRzUa8D9riCWWKGEC5T/+7//8+fPdVLYHy47hK36PGxuvfVWvy5lfuedd/opjOUSplD03LAAVfSJFWMlhlayPmBDePiFXkN4HsmS8hYiwlPknloN7iZKxuri4m7ZXOGTtMKOCCO/aWlqlsqKTbL3jL1lH3exEcf58+bK5oqK7d6d9us3t3hrYE91EE9luHG1GwgVJ3RviB8pGmhHcMLBxLn5qURKGBNTsARC8QljagriSpcLhTdEmBAEJmKAtDoqCGxo9WAF0uL7u9/9rstqIoYYCkEILqlaa9wTofAA7itdQxS6iCC4lA9T6CaHfQARS3V3EZ0wnqr7g1BkQgsKIQqFPoznhuerDUB0G1IxQmQIM2jLNy25el64xkpY/pyXwnX9yEc+4t14fkerb/g2C+ixUX/UcuS6UDZA3aPc9Fxx98NB8RVCB9qghZXJsfaXlBdExGXkqJG+kzYWWF8Cx/f8Bkux0okXuQl1eV+wDu9P11RXSUN9rcw86GDZ74ADvcgucq7DcncDJLJC2F9Tc5PvmzjUu9sAlhLWFiB6emODWg+UUyiUiJNCI4FaA4hholfQEAmNMVKRtINvCC2+2heOaxtvscVDpVdriwqlgX0qcbj9v//979FcdzgejbFxn4QWH1YhLbRh7BnrC6FTF1PLDHBz1ZLGOlSLGRcfi1oJBTbs2hSGIbCaVGBxy9Vi5wFAI4eigspx632MBfmrX/3Kz1PODOjPw4Fy0n6KlFXYoBJ6Bz2FOxT6ceq5EWcO1w+7ImHZq3gTA9VrE4LrrcYIFmSiBq2+SHlBBG7m0U5sMN3VvO8LCqadvIRuqtla3dUKrQXGNlUkWYbYbnVCWOVuzFHupjn2+BOcdTjD/2bhgvnyuptAf6PwmZud95YZkznZ4xvMhO+vImgaR0MAVMR4t5lAu0JcCrdX0XKk9TW0aJSw0zedpfXtjxCsOY2P4bolEtYQ4mUqSnQyVuFBAMKYF1ZIouscnjcWTNiJ+7bbbutqoOBYv/SlL8lXv/pVLzBMX/va17xLr3A/6r0a9j9ErFRoOQa1iCjP0HKkv6NaUYiwdnKnjPXBELbSc6yUNSDmiBxQHlomdIfBHQda09ULQGTVPUW0Qiu5rzIntqlCFx9HJVSi9w7CqQ+IRNcawi5YxK3DB1KyDAhB5MbAFS10liJP/HhRSoj7zcyD3yEnnXyKHOrM72JX0O2tLVJdtUWqnPWIBYn4VTr3uqpysyuITl95jz32eDnyqHc5q3SUr3QvPv+cLHJPSUgkhsRoWt2FGusuUhJHNSTQig9UIG0RRQz15qfChdY0DQKJ+uz1dPPjBipUcm3FDsGlVuHiOiFKvNVAKy/Tj3/8464WTAjjbPExqrBi45qFsSolbEjCotRWY0RZrSygwYD9E5fjGJh4H5r3kRUEUcU8dKXpJ6juO8KjVhpCooIGlHmifno0moTWn8Yzeeio5YhlFd9/D8Gli5QSdqtBDLW8cKNVpBEz4oOcu5Y5VvLvf//7LnFjfd0W11/vFcCzCB9ESuhNhITXTzvA95cBIYhKmXuCkKQ1vBg9wbO1rrbGV4ixY8fJOw8/0ll9x8sxxx7nbtaj5CAnloe4J+jRxxwrx594krcI33GoE87SEi+6ry9cIE/993FZu2aNf2ImEmG2zbpjx491Ln1yg9oPdqjIWiEgbOlDEPXa0QVD41QKrmk8rJeI8ObHklNLIiR03Yg5YpF9+ctflquvvtpP11xzjRdJQBjCN1T0LReFuJUKEe5i2BAAuMphTC3s/0YMUsUS4SFpQSIQNRUWLDd9sISWZ+ia0qVILTws2ngRDzs4K6FVTuutuvBcJxUjBDN0y+GKK67w+1B4RVJBPFV8wlZe7gUE8Itf/GJXmWMN86qjWp3hdYxvBKHehV2ylEQxZcoh7D6V6AGZDANGEBEbLtR49xRr72j3hd2bpUhhvulM+icefUTmz5vnKke5MGAVMS2ElT6FE50bVepcheEFw/32NqxbJ6/OelmefPwxmeeeyo31Dd2smHiIwSCghSNHJXShhiLE9igLLEC6nYQxIYSSRha+S/Tkx0LAbcQaQRwI1CeyGrEu2A4TFk8oEgr3C5XdX++ysoQTv/3oRz/q1yccw/VEyNh/+CYIYIVSYfle9x2CNYcVquetDQ8cA628iA3HgiD3ZPUilrizbIP9IBo8cPkty3Brwzgh5cyDgAcLryzGg8tMX0nOh3MlRhg+YKgj/B6LUF1hhX3pcWDt0nk8BIFHgHFLw1gw9ai3Mmd9uuywbUAQOT/6CyZqKPnYxz7mry/Hr9clUVySh5/ed1ynnrrl9EVKp/9KBMubGptkpbM2ctzF5Mbs7RRiQoWYZnq3m5uHgeczndDxK96CYXv19XX+5uMGZh/cLIngO7ZJ/GVUcZGMcRcymSIcKum/KD8sQcon3o0jBMFTnAqAxaUWSQiWFlYG26EBIXx1LoTWT9xFKjPbSnS92B+NFj3dS/wG8cLy4xpy3PwG6wKLKd7lQuxp/EBE+D60cLknODd+T8XlvHW/bBfBZLu819vbQ1bXpWLjpnMMuMbE0OK3i4DzHcdPGcSLNGD5UlaJypPy4yHF+SDEoZVNHeRYeFDgSiNIIXSFwSqjDELrmfW5fj3VCZYTK1QLmv6mTJxb6E2EYJETptDrFe9ZAA9Jjpf7h2MN+5b2hwEniMB3FPxqdwNmpDHi3rYX3XuDmzbR6bInBqLvbZ/A9xR8nRPOIieGo8eUxXzzJBiK+RANY6AxoGKICqLG03AKloF7gmKNIHZ9CRpPGJ7O8RP9CpMRQ0SYJxANKLjdyYqhYRgDgwEpiIAoYuJPmTrFu661Tqi0xawvcesvuBu4LDBl+jTfLzIFDGvDMHYxA1YQwYuSEz/ieFOmTZWMyFpEGNVi3BFx1N8QJMcibHCWYUnZaC+GBJJNDA1jcDKgBVFB/BCqyc5anDh5smRkZfoGEoLOzU3NPl8iqEAmmgChI0bIO8v8tqWlVYpKimX6XtO7EgeYGBrG4GVQCCIgVEz5w/N9lxqsueLRJZKWme7fg0bgmBBK+sJhRTKpcDJhDTKAFCnHxk+YINNn7OW75RBnRHQNwxjcDBpBVFQY6dJRUlLqxXH6jL1lwuRJUjqmzGejoftNnhNOphEjC6XYWX9jJ4z3Ijptr71kzLixMnxEgbccTQgNY+gw6ARRQRQRM/7SukzfJfrF0VWmbOwYH3dkorW4pLTE92fTflgqqoZhDC0GrSDGowKpIqlTuMwwjKHNkBFEwzCMvjBBNAzDiEgdQUzCY/XdY6IuMjvq5moXG6DD9Q5vIzgOpqROwBgyaEimN5JZ5+0i2WPvbb2+vlfCbSX7m2Tp77YGzLvMdJImrT8ZQHjhnf6GTY2NvgtNWvq2voS90dra5rbR5Mdn4aSnTp/ux1iuq6+LJQdgG30UByLa6n7TRP9GJ4RkLiGbd/XWWMLSno7D3mUeOtx+++0+QzX3KUlO44cSoK/rH/7wB58VnMa8D3/4wz7VF0kd/H3YC9QDMtuQ65D0X//5z38S/oZqzXK2rQk2GAmPYUm5b0nyQF7B+OQZvJ7KODMkjWAf8SnZWE7GcFKdURdI6kBiWrYVjp1DDkfKge2RoSY+exBQl0m5RjZsEjywPY6ZbDmk/WL4gURpvPgN5836JIU477zztksJRhkz1CtJbEllxjAGyZDygtjpLl5WVrbPbPPW0qX+YnKjTXCFz1grFMryZcukoHBEj2LEKdKXMHdYrixz29CCR1RHjRzl11mxYrnvhtPbDUn6MC7AqpUr/eh+QD/F0WVlMnx4gTu+JZLuhI8uP/HFaoI4dCC9FaIC9GxgpL1wzJG77767S2gQRBLFfv3rX+8avqAvyKf429/+1ld0Rs3rDQbSIhU/AsGwqCSFVRBWxnkJs+SQsYcUYwgZ2yd1mYoSAkNOw0THSRYaxsshmw8gQDq6IGLIiH1h3SLtFwlnSdBLfUwE46r88pe/7DbeDvCQCcfmIT3ZI4880i1DNg8X0p2R7YiyJ6dkMhm0e38cvc3EhMxZgxMn+U7TfKZQEcUV7kk1x90MS9wToL62Vmqqt6WUD/G/SUuXSROdRdkQe6VPL8xKt425c15zT5HFUltTI1vdhY4XMoWLNmHCRHG2qB+nBfFlOxWbNsnC+fNl7muv+tRPbIObzxi6kPlak7VSMcNs2VhFP/vZz6JPscGgyILNPcM9pVM84XealixemMJ14tflvua11hCsxb/85S/Rp21oHaCu6DyizpCpuk/SkyE0CD77wcIjJZgSihzbCOsVljHnjRjrehwnlqGmEQPEngdHOEAWYDCF8D1JeHsifv+9kdKCyAVBhLDqyFxNwStYfHzmSeZmpL6+wY+fHK4DbAO3ds2qVbJq1Ur/PYWD68E8oqYDUTU6wWyo334bXLSS4hLvopNJm8+6Dr/nWLjRsWZbW1qdOMcSQRhDExKmXnrppdGnmAutGbYZ31gHs6dvLNmkERbEAWsJS4d1yDGosC0sNQaUwtJiPBbu4fA+ZeB4hAYR0Qm3lRHuFDUEQq677jqf4zEk/v6Hm2++2RslQLJcBBI3n33ceOONXtR7yl0ZgpiRJFfHieHBwWe2wyBfuPWcnwojORsZ9rQvI4NjCLN17ygpK4gIWWHhSC9C69bFUtLzTjIJXbum4Cnk7hBpaKj3v1O4afLz8t16HbJmzWovXBQsF+GEE0/0TzcVRqXeiWq37ToynZU6YkShd4mBfbBOOOkTiG0hsMmOI20MTqjUKhC8Fsrg9sS7+atcdNFFXjwBQWGkPASM+FmYkBXXj9T/DKtJxmtigvH3KAlRySSNW6wTA3dpItYQXGDdPjE2xjjpCb2HwwH/dQArLDqyfH/605/2QwqE2bx7goGgGLpA+cY3vuEtZuKQnAPHzNgrDDWg4O4yYFg8vEhBCAtw9Qkj7CwpK4gITHZWthdDhOykd79bjjvheJk2fbrsNWOGn3yW4Chex4VD3BBKvYgIKHGDLZWbvYi1ue8Zve+ij33Mv6v8EXdDkqUX8QJ+p2Kr22DbxFhqtm711iMX4bjjj5MzzzpTTj/jdD8xf9DBB3eJMX+95WoMWYilXXXVVdGn2FjTxP503BZS9BOPSwT3nD5gIZzfFZCJO7Qcb7rppm7j4CRCXW/A1X7ppZe6HZd6bH1BTFOh/l522WXRp+4wtIOKNlZlOHCZQhnSoKLQUBUOkr8jpKwgYt4XjCjwrijmM2MuTHUFSOaZ6dOnOSGbIkcceYS8Pxi7tbODN0+CG8lNPEmJ4yBSDDh/xZWfkVdmvyK3/vWv8sB998nln/qkHHvccd2euPFPX9KKNTTGBkfiJtiwfoNPJ88Ickw+tXxcqnqOxRjaEEtU15fY2y233OIf2oA49jVEZ3+g1Re3HOFgwqXVwe3jIanJZz7zma5xTbiHb7jhBj8fj4oeFqyCtcgYLJdffrl30+PrSyK0boSWJlYv46wkAmszHEebOhYPZfnxj3+8KxMV46qoBZ6MOCcipS1ELDcf43NPiDtuv13+9tdb5Kknn+qannj8CSlwLkF2TrZfn0LYvhzSnKUZi0fQ+otbvfj1RX7IAG4i4obxTfvbFabbNg0z3Bp8VzK6tOtdaCYyaDNsafjEtDFJDR7ixPbiwXrsaeS9HYVGhaOPPtqLDNPxxx/vW2gTQX3Cvb744oujJbEWZMYkCRs1Qhh1j+0riCq/weVHGBMJVgj1mBhkOBKiCnJPhPWQsEM8CCIPldDKZBRFhp/t6Tz6IqUFsbFpm1jxGXf1A+efL5e5C8B0wYUXypzXXvM5Dyk8Cp1JZUkFsqR0tF8+17krWItnnn22nOWm9zpzm3UJ5Grh8xfzP6S5pVlGFI7w2+B7uu/QzSY/f3jXlONEOYTWccNIZAFxTycaEGpnwEoLJ+7Tniw3vCXqE3FO4oBA48VvfvMbf48ngtAT3YXoThOKDeJKgwuxTR24vidYFyFVQje8L7oZGxEsY+LhwsMHyGyPtdvTufdFSrvMNHCMGz/Bj5LHBWZA+AcfeEBuda7H32+9Vf7inlAvvvRSTAQRTLce7q374LeBsFVsrvApv4bl5voL8MRjj8syZxlqN4F//fOfsc7dbvt+G9k5fuxnvQAs50LS+Zo+h7jwL77wgjz6n//I448+6ifmFy5Y2HUc7Cc3t/fRAI3BDxYRfQzjmTt3bsLuLjsDVhqxPVqimR566KGE1qlC4yLWFX0mFTpcc2ya9SkexB23nxZv+jaGos7A/d/+9rejT4lh/XDEvL5ajsP6k2ikPUD4aIzBglXuuOMO38re03n0RsoKIkLU1NzkhGu9ZOhTyxUQ4sX4KTqGCsOJQnpGuuQXDPe/C6FQN2xYFxtZz31HvASrEmuRv0uXLu3qA4agDR+x/Tb4TLcfGmUAUUQkw0ljQ+A7eMdZmYORzs4O9w9dNla4aXk09TTf19SfdYOpA1ct1iiWaiAe2ohC169wjGliXbuim4hC1x3ierREM9EZmuE+e0LFhliivuWBkUCH8vj7PwQjg/OgcQTh1Y7YwGfeZEkEVimipvE+wCrtCVxkHccI6PidCD0PhF3jtfS3xErsS3ATkbKCCAiU70pDxYtQ4dKJAklL43WfUQnfEGH9RiesChcUC04nPse2kebc4kJvZSbaRpt7ErW00UUn9jnRxO8Q5fwEXR0GI2lp7VK+4T555skb5Kn/3iBPP+H+Pn5d7K+fro/+bpu2fReb189Px60bv174nU5PPn6DLF3yR1cryqMjSh2Ilf30pz+NPokf6J3uJToWNd1Err/+ej+/K9hRF5EuPIiics899ySM1yWCWOV3v/vd6FNMiHrqXaF1KhQ2ut8Qx08ErfKLFy/289TTI444ws/3BC7z5z//+eiTyL333tstXpksKS2IgAtbXFLqM1gjgBArXDc5ccIMLy4pltz8vO2ETKH7zii3Dq/3dduGmxAy3GG+R8x6Ij09zTecFI4q8hcI2IbuE1d9ZFGRd8/Z5tAg3T0oCqSg6FJp7TxXaptOk/qWM6Su+XSp72EKv2NeP8f/Jn698DudmtrPkZr6A9yFSG5c7j0JHZ4RPcClowGDV8wuuOACvwywxrTS7yw72ogAuNva4s39rN3HgPqCV/bDH/7Q9wUMrS7Wff3116NPMSu4r9fjeOdZIZ7//e9/v6vDN7BN3Pavfe1r0RKRgw46yItvX9DiTH9G0HrZX1JeEJ3keHcY6620rMwPOYroFDqLsGT0aCkqLZGsqJW5J/iOCxvbxuht2yga5YcPKHbbQBSTKUTGbGEEPn5T6AVypD8G4ot8N9SgIhaXjHJlWyC5eTl7dsrNcQ8nZ+FHx5IqIHL07VOIb6lbyutv2lBItxiEc1eARXXttdd6i02nb37zm302dAD9+TiuRPg4vHNt6SyNS46gExfF+qWf5S9+8YtoTfF9G+OTLMRD6zfvIit//etf/efvfe978uMf/9g39LAddb0xPq655poeY4ghdNLmzZ+dIeUFMQRhzM3L89Yi1lx/n4peGN0F7tpG1GUn+jL2tw/YhlqVw90xMD4LVioZd5IR1MFHNFRD1HL5dkypBiKhr8MR17rkkkv8PJCw4EMf+lD0SeTWW2/1WWtCOKfQSgvnQ0I3mTdFSBDxrW99q2tCZHglTgnXjy83OkIffPDB0adtsB5vdmH5ESfHpeZVOt4k4c0QdZF5mya06uItSYWuNnSg5k0ahfNHvBE+3vvW/pOIIedBA05PxJ8H6/blXvfGgBJEoAB02lHCbezodnbFNoxdQIqFJ6jMvI/MQxPr6nOf+1xXlxBFl+G1MOpj/GtpPGCx2tgGD/1EXXcQCywr/iJYiSa2r339mNdt0tUmvg8g1hXWKgLOPlmf9F+sx++If5J1hhgo29CJt0kIByDIM2bMiLYmvlO1rsPvKQuFhhjSd1EOvCkWbo8J8aVRiBgjIh8PGYJYj/OItxx5VRGhPvDAA33ZcB48hLR7UV+kfPqvwcLgTP/VLps23i8NrYfJxg0bfSxoT1639PQsGVW4Tg4+6N3OQu87scCeACuM18ewnKiQiIQ2pITgEtKKSnkRY+S9+hC6hNEowDYQl7CLi0J505m6J9g2gqOiQQ8LBBtx0BbZeDZu3Cjl5eVeSFgnFBzOiUYQYoqcJyKHIIYtzQrrsC7WLW502Locwv44VyxKpIj9IoicM/OJ0PMg9EDsM9E9x/dsl+84vmRcbjBB3EOYIO56UlEQjYHNgHOZDcMwdhcmiIZhGBGpI4jWLjFAGVyhDWNokzqCaPVqgGJPMmPwYC6zMQiwp6mxazBBNHYSEyNj8DDABDFW+ejbRD+ojo7+v9BOtxB6GvlttLGNxG8B9IZ2LdHjYEqB3ktvG2lvpygOsu5ZxtvLgBBExIbR7Gq3bpXKigr3t0ZKS0fLqJFF7jsnaMmIEdtojY2It2VzpVS5ic6idIhl+8kKGuJXV1srVZWVsqVisx/Eqmz0GJ+GbCiKYlt7mx9+9W3rOzoEy9zYfaS8IGKFMZBU0agiL0Rkx25saJCKjRslPT1DSopLfYXszdLju8zMLCkuKvadhxkVjwq8qbzcfSky2okrIovY9YSKXWlJqbQ0t0hDfYP/u3nTJp+ibHTZGD8cwWDsVN4bDN5P+e9I7jnDSDVSWhARoZzsHBk7drxUbq7wn9Xl5ZWfhfPnyRuvL/LjMVdXVXeJVgjLspwY8npU1ZYtPgkB22Aqd9tgnOXXFyzwYlu9pcqJZ2KLg+1MHD9RmhudmDpB5bUiEjqQA47B8ue++qrUVFVJdeUWn0B2aEB28Nh7tbzG9XZMmRlcB3uf3Ng1pPSre1gfU6dN94JTsancVwA9XP99ZBUiTiwvHFkow0eM6FY5iBNOmTpVVi5fLuvXrfPb4LcKVqEXN7eM3xUUFvq8ie5DtEZsnTFYgE4M31j0ul9X37PkN357rB9tg/dOi0qKu8W3Bs+rezXuobJGViyfLQ21s2TNumGyZv0B0t6xLWP4ria8niFpaZnOcyiXGdM3SF7+wTJp8lGSm+eunUziW7+OYfSHlBVEDoss2JnOLZ43d463QhCmnGFk20j3bjMvbCNwZAyBrOxsKRld4r8HtjE8GgRqzquz/TZ40Z6MwCqMZPAldbp3l11JZGSmS0lZWZfgASPuTZgwUV6b/Yq3/siowYv5bC8vP09qnLsdL7QlpaWS7Y5Vi3fgC2Kr1NU8J8889ZDMmr1U1q7Lk6YmBv7vcA+m/jduJQsPvSxXzomGZOCatba2SVZWhmTnpMm4Mc0y88BcOeU950jZ2OPdGuNiKxpGkmR8u6+RYfYAHe1bZdHiN52oFMqaNav9jY6QFDprjzFVED9vpY0dI5+47DJZs3q1F6IrrrhSqpyrzCDbCJKPN+bleaECflNcVOLHTK6q2uLF8OOXXOyHJSVjBr/5wPkf8Ek0ETq1EocNy5XMrG1ZsfNy83y8kGPh88cuvliKi4tk9apVcv4HL/BDkS5btsyvr9tg2+RMVBDYg2bOkPHjE2cZSW3aZdXyP8mvf32fPPtCvWzcmOWEMHaePAM4t90xwYSJE+XQww6XKc5TmDx1ipumumman58wcZJPo0Vey9qaBndcnfLmkjSZPft1KRo5SyZOYgyTXTu6nTG4SdkYIhWCoT7bnAWAsJHT7H+vuUYOnDnTWVlHyFe++lXZ74D9navWPell/ADxWC9bq6u9UCGYtCx/6sor5IILL/DCqW53SIfbXwiJabFagfWHO8v045dcIp+4/HIZPbpUPvbxj8kll17qXWWOYbBRvWWO3HjTc7KMMZ1c2WRmIoR75jz3nrGPlI0Z43sDFBUVR1NsnjyBCOTMgw6Wd5/yHjnk0IOdN5AtG8sz5Na/18ibi+6OtmIYyZGygoiw+FhieswNpXWYhg8Eqb6+zrcKI3JhpMi7rOECB8uG5Yb56NJ8XjcsS7aVqA+d7rMLp5lYfO6g/Ee+9114nNvc7rbR7KxLGlcQbsVJczQ30NksTzx+m6xeQ1nuPte4JxjtkGvPCIvxE1Z9e9S6jTU+Y9995ejjjncPvVFSvknk/gcedw/UbWN+GEZfpLTLzLiqDPheXVXlEz7OeW2Ot8JmvTxLnnzySZ85d93adT4GiGAxxQ9FiruLC0wXG7aHVXH3Xf/y22D9mQcd5MeUReC8wLqJ4QWwCkOKi0ucS7bBz5NwkiEXH3/scT+wzuOPPebnYy5kbBvEN4lpKli8A9Fl7uyolb///VHZUkXL+Z4VecqRa7929WpZtWKlrFyxotu0asVyf18A5U0Zkym6qLhYNqxf675rkRNOmCF5eQMxTGG8HaSshYhY0fgxxgkOIshnGjL+cdttPpMwFtnNf/qzz06M64sYESNkPYUKsrlysxQWxlKNtzqL4l933ilL3oj9Bgvx4Yce8hYjlc+LsNuXj0FGdZ/lzS3NfrujnZjy+e677pLZs17x23/owYdk9iuxBhvdBuvmDJKB6hsba6S2bs+LYQjWIH094yfuj7XuATrrpRflpRdecPfEVndNMtz9khPrKN+RLps2Loy2Yhh9k7KCCK1trbJ65YquqojQdDiRwZpjnrGSvZjxnROkfEYzc6IUz+rVK7348Vs6EGdkbhNNxJXvgJbMgjgLE/i8du1qVwkb/DyuvIowbpsX0Ah+WeAszFCYBzJtretd+RCqiBa8DVDmiSYeSFrOGzes96K4eNFCmTdnbuxaue/r6hibd/d1CTIGFyktiNz0rU7AuPEBAdLKAPoXMRxVNEoys7NYyS9TWKe9vcOvo59D2Dbb5e9Itw3c3HjLjt8gprr/EP2sv6EfY66zRuO3MbDpfs6pBtcAYSTGvGDePFmzelX0DUeOGO752KcxMElpQYQsJ3J0ch4xsrCbJQY0btDlgnGRfReXHkQoI4tB5GNjKCOMoagxTxeeotJi75r3BOtxDAxoHxt5LPrCwXf0j+Q74o+DivBEUxyuAw82fYBC7JYYOOdgvL2kvCCqVVYwYoQfqJ7B6RE3BoofPWaMFzmGTezVIou2wRjKDFRfMrrUb6OoxG1j7Bg3X+S2sa0BpDd80J6B6cvG+AHvmUrHlPlt8Z2RagwmS93Y3aS8ICpeGJ1FiMWY51xSLMLQlU4GFVfcYrYxLHfbNpJFt0EckgHvmXDXWJbscRh7EHddDCNZBowghiA8OyM++vudFbBdsY1UZ+DLiT2kjOQZkIJo7DkGvJyYHhr9wATR6JUBbyGax2z0AxNEo1fMQjSGEiaIhmEYESaIhmEYESkiiLGuLP3tAmMYfWNBRCN5UkOBnBhWVlbKsuXLurLOGIZh7GlSQhBJ0b+1ukaWL18+6Pv1GXsau5+M5EkZH5W3UBBGw9ilmLdh9ANTIMMwjAgTRGNwYyEYox+YIBqDHHOZjeQxQTQGN6aHRj8wQTQGN+YyG/3ABNEY3Fgrs9EPTBCNwY1ZiEY/MEE0DMOIMEE0BjfmMhv9wATR6JWBLyfmMhvJY4Jo9MqAlxPTQ6MfmCAahmFEpI4guie5pf0ydjl2Txn9ICUEsaOjQ8rKRsuhhx5qSWKNXYu5zEY/SA31cTdtXn6eFBYWSlZWluVENAzjbSE1BNF5NTrou4mhYRhvFykVQzRSjwEfgbMQotEPUkcQ7cZNSQb8c8o8DqMfWAuGYRhGhAmiYRhGhAmi0SsWyTCGEiaIRq9YBM4YSpggGoZhRJggGr1iLrMxlDBBNAY39i6z0Q9MEI1esX6IxlDCBNEwDCPCBNHoFXM4jaGECaJhGEaECaLRKxaBM4YSJoiGYRgRJojG4Ma63Rj9wATR6JUBLyfW7cboByaIRq+YnBhDCRNEwzCMCBNEwzCMCBNEo1fiY4gMGctAYPwdEFijitEPTBCNXgljiGlOXKZMnSqHHna4TJ02zX9OeaxRxegHJohGUnR0tMukKVPknYcfIdOmT+/6297eHq2RopiFaPQDE0QjKTC0SktLvVXY1tbml40eM9b/TWnMQjT6gQmi0StqX8Xc4+7WFrFEwxhMmCAavWKSZwwlTBANwzAiTBANwzAiTBANwzAiTBANwzAiTBANwzAiTBCNXhn43ZqtY7aRPCaIRq8M/G431nHISB4TRGOQYxaikTwmiMYgxyxEI3lMEI3BjSV3MPpBaghiZ6d0driJv/Z+rLErsfvJ6AcpIYhp6emysbxc5s+fL62trQMjz55hGIOO1BBEJ4BNTU1SWVkZLTEMw9jzpEwMEVE0yzD1sCtiDCWsUcXoFYvAGUMJE0TDMIwIE0TDMIwIE0SjVwZ8DNGCoEY/MEE0emXAxxAtCGr0AxNEY5BjJqKRPCaIhmEYESaIhmEYESaIxiDHgohG8pggGoZhRJggGoMca1QxkscE0egVkxNjKGGCaAxyLIZoJE9KCCK37GDP4zlQz9HkxBhKpIQgZqS1SU52i5sbpA5aWppkpHdIdlZHtGDgMOCviKWUM/pBSghiWkaB7LN3gTTU10tbW1vXMAJdORIH0E2tx6y5HTs6OqSxvlky0zbL5EkNftlAYsBbiDaEgNEPUiSGWCxHHXWYFORXSXVljdRUV0tdTY001NVJc2OjtLW0SEd7uxdKL5bRPR6KT/zk/nFTbL0dwm8i8baZFD2mTid87U7MW5qapbGhwR1/rTuPrbJ1S7XUu/OYeUCmjCo+MvqVsccIrpVh9EXKNKqUjD5DLvzgGBme3ymtLe3S7ISlod4JS21dTFiqqp24VEmN+1u7datbXiv17jusSgSIqcmJZ1Njk/ttk7Q2tzghbfUWJxNi5ScnrNtNbUyx9fzU2uaOoVWam5v9tthuI1NDo98fQs2+a51o17pjq3HHVe2mrW6eZQ3uO37T1uqOoa1TRpc2y+mnHe/OcmzsZI09h1mIRj9IGUEUGSbHHPdxJxwZkp7OU317Swz3EwFrdRZjsxM+RLChrt6LU2xCJGu9debFamtMsLxo6eQEdbvJWaR8p+siuPy2jslty2/b/631+0OoETysQS+27rhilmuX6eqPvaMjXUaM6JSLP7aPjB53Sew7wzBSlhQSREfa4fL+8z8l553TLMNy0qWjswd3JxKc+AkR7QI3dicm90+0oRiJ9sfUE+3taZKXL3L++zLksCPPdEsyYl8Ye5TerpFhxJNagujIyDxWLvzwRfKRD4+TolGZTlhS7hD7pK0tzbnJnXLpR9vl9LO/4pYcHftikGFaYww2UlNt0s+TU8/4iXz1KyfLzAPqJT3NWYsdqV/7MCrT0zNk+vQ2+fznjpfjT/mRW3pQ7MsBDlYzIYttpElnR3crOhXx1r5hJElKm19Tpl8oV199gVx4wSgpLW11N3dqCiN1jnhh4UiRM88olWuu+aDM2O9S982U2AoDmDR3cpQ4ruea1at841JGRoa0NDfJyhXLU94ljR2fiaKRHO5+T8VHaHhI3NBrpKL8ZXn00efkxZc3yeZNToDcKq5evq1gMFF6BQXtcsjBI+T0M6bJXjOudN84ZdzuHAYmNdXPyzf+36+lvDzLfWqXouIiKSoqluqqKtm8ebOziFPzmcp1yckR+cJVU+XQI77plrgPhtEHKSSInc4F2yxtraultbUm6iLT5i3C9o5WyUxvc+s0y/q1D8pLs5pk7oIcqazsFLeah3q5J4wVFUHEeMSINJmxd5scc1SH7LXXCZKVM03a2rPdcXRKhjvejMwsycwUycoskYzsg/3vBlqQv7npTfm/a66V9Rva3bF3uPOnRb3DzaenrBgq2dmd8v3vnSUTJ18ULTGM3kkNQezcJBUb/iAVmyqkqXGzk8YOJyYZTlTSXeVLk452RIRuLJ3S3NLpKmKnNDV1yqaKTlm2skPKncW4aVOntLSyVgx0R6cdgVLRST8jgiXF4tz3NJk2OU3GjEmXguF8m+aEL13cIUt6BrG22DG2tSEi7ZKeliMjRk6WcZPOkpxhA6xzduda+dnPvi2z3EMoI2PgvHpIK/+Ysg75wQ+ukoLCY6KlhtE7KSGIHe0rZOni7zsxzHBC1+6EhIpH9xcELfHhIXRqoLS2dkrlFjdVdcq6dZ1SVS3S1NwpDQ3ub1PMvfZEf1Uku7bMfvjj/3Hzbru5w0Ty8pyjlZ3mLEGR8WPTpLjITcVp/jt+odbi9qgKp7ljjInl8PxWGTvpAhlZdFb03QChc6M8++QP5J4HamTt2sgc1wJLAaJLFsPPpPlrMmpkupx6Spacc+6lkpN3nP/aMPoiRVzmVmltekmqtjwjmzetlObmOndTZzjhynLimOGe9mqZdD9UPfSYcMYm1mH1ZmdB1tTGRBF9pUUUcayrj4llczPWXCzOlOum/Pw052JRndK8JZjvxLCgIE2G5ZCYwW02UFH2Gu/6YsmyCKs2I9NZuBnOOnTn1d6RLaNKSqWoqEwKRn7SrVMY/WLg0Nzwb1m+9B6Zu6BFli1vdOWaLS3NNHDpdaE8Yg8wiD0oog9AUYUf3eduX8d97gmuDddsGzHx4/dcj8ws9xDLbZXpU9pk/wMK5ICZp0l+wQfcepmx1Q2jD1KuUaWzc4t0ts1zopXmBKxDWpoWu8q3zFmRbc4SbJaGxkxpa6WGURlaXT1zVktngxOgDCd6vmb478BXEt56cf/7k3T/dPvriK3p/gbhMF8ivqbhesU6auMC87etLdPtK8ttG/V04ueWZ+e0OTFtdVOBswZLJStnkrMix0n2sGa3bJpT3n1iGx7QNLrJPawa1riHTKs0NcyT1pa1rjx4xXKYtLS6AuzscNY48cU6ycrEgo5NXBMt520l3h1f3F0Xw02xi+DLnGvjrrbbVrv7t9Ct5651Z7tkZWGtt7jyznHzwyUn9yjJzct3DzOnmhl0dypha4aRNCkniIlpdxPWCJWCz9QY+sFVuL+V0tr8orS3bnWVMccJWMxCIYbU2ZHllmFtEuhzFqe0uM+usrgKpXWPk0/zy3AH3Y9dZU5Py3UCmO3+NrpV253IjfTz6RkdTuSOct/Rilzm1s31W8A6ilVmzJduJswghpKjzDAHI2vRlVFnZ5O0NT/lxHKZK/9R0uYbxrLdA411Gtyv8mNaJ8SH/cX0EGtleXq6M/PSWty3mW6+XjKy3APIXwuEzz1wss9w67ptuGvJ31jYhMKn3IOnmmHsAANEEFMJL6GxWcMwBhX2SO03JoaGMVgxQTQMw4gwQTQMw4gwQTQMw4gwQTQMw4gwQTQMw4gwQTQMw4gwQTQMw4gwQTQMw4gwQTQMw4gwQTQMw4gwQTQMw4gwQTQMw4gwQTQMw4gwQTQMw4gwQTQMw4gwQTQMw/CI/H/eU+vGbcSJoQAAAABJRU5ErkJggg==;" parent="fA-UEe_n8p6ESNzPpI0O-1" vertex="1">
          <mxGeometry x="63.78" y="30" width="78.07" height="80" as="geometry" />
        </mxCell>
        <mxCell id="fA-UEe_n8p6ESNzPpI0O-4" value="Log In&amp;nbsp;" style="rounded=0;whiteSpace=wrap;html=1;fillColor=#f8cecc;strokeColor=#b85450;gradientColor=#ea6b66;" parent="fA-UEe_n8p6ESNzPpI0O-1" vertex="1">
          <mxGeometry x="58.07" y="130" width="90" height="30" as="geometry" />
        </mxCell>
        <mxCell id="fA-UEe_n8p6ESNzPpI0O-5" value="Sign Up" style="rounded=0;whiteSpace=wrap;html=1;fillColor=#f8cecc;strokeColor=#b85450;gradientColor=#ea6b66;" parent="fA-UEe_n8p6ESNzPpI0O-1" vertex="1">
          <mxGeometry x="57.57" y="180" width="90.5" height="30" as="geometry" />
        </mxCell>
        <mxCell id="fA-UEe_n8p6ESNzPpI0O-8" value="Login Screen" style="swimlane;whiteSpace=wrap;html=1;strokeColor=#A50040;fillColor=#000000;fontColor=#ffffff;" parent="1" vertex="1">
          <mxGeometry x="750" y="60" width="210" height="250" as="geometry">
            <mxRectangle x="570" y="80" width="120" height="30" as="alternateBounds" />
          </mxGeometry>
        </mxCell>
        <mxCell id="fA-UEe_n8p6ESNzPpI0O-10" value="Log In&amp;nbsp;" style="rounded=0;whiteSpace=wrap;html=1;fillColor=#fff2cc;strokeColor=#d6b656;gradientColor=#ffd966;" parent="fA-UEe_n8p6ESNzPpI0O-8" vertex="1">
          <mxGeometry x="75" y="140" width="90" height="30" as="geometry" />
        </mxCell>
        <mxCell id="fA-UEe_n8p6ESNzPpI0O-12" value="&lt;font color=&quot;#ea6b66&quot;&gt;User Name&lt;/font&gt;" style="text;html=1;strokeColor=none;fillColor=none;align=center;verticalAlign=middle;whiteSpace=wrap;rounded=0;" parent="fA-UEe_n8p6ESNzPpI0O-8" vertex="1">
          <mxGeometry x="10" y="50" width="90" height="30" as="geometry" />
        </mxCell>
        <mxCell id="fA-UEe_n8p6ESNzPpI0O-13" value="" style="rounded=0;whiteSpace=wrap;html=1;fillColor=#f5f5f5;fontColor=#333333;strokeColor=#666666;" parent="fA-UEe_n8p6ESNzPpI0O-8" vertex="1">
          <mxGeometry x="100" y="55" width="100" height="20" as="geometry" />
        </mxCell>
        <mxCell id="fA-UEe_n8p6ESNzPpI0O-14" value="&lt;font color=&quot;#ea6b66&quot;&gt;Password&lt;/font&gt;" style="text;html=1;strokeColor=none;fillColor=none;align=center;verticalAlign=middle;whiteSpace=wrap;rounded=0;" parent="fA-UEe_n8p6ESNzPpI0O-8" vertex="1">
          <mxGeometry x="10" y="90" width="90" height="30" as="geometry" />
        </mxCell>
        <mxCell id="fA-UEe_n8p6ESNzPpI0O-21" value="" style="rounded=0;whiteSpace=wrap;html=1;fillColor=#f5f5f5;fontColor=#333333;strokeColor=#666666;" parent="fA-UEe_n8p6ESNzPpI0O-8" vertex="1">
          <mxGeometry x="100" y="95" width="100" height="20" as="geometry" />
        </mxCell>
        <mxCell id="fA-UEe_n8p6ESNzPpI0O-23" value="Forget Password" style="rounded=0;whiteSpace=wrap;html=1;fillColor=#f5f5f5;strokeColor=#666666;gradientColor=#b3b3b3;" parent="fA-UEe_n8p6ESNzPpI0O-8" vertex="1">
          <mxGeometry x="65" y="190" width="110" height="20" as="geometry" />
        </mxCell>
        <mxCell id="fA-UEe_n8p6ESNzPpI0O-24" value="SignUp Screen" style="swimlane;whiteSpace=wrap;html=1;strokeColor=#A50040;fillColor=#000000;fontColor=#ffffff;" parent="1" vertex="1">
          <mxGeometry x="300" y="400" width="250" height="310" as="geometry">
            <mxRectangle x="570" y="80" width="120" height="30" as="alternateBounds" />
          </mxGeometry>
        </mxCell>
        <mxCell id="fA-UEe_n8p6ESNzPpI0O-25" value="Sign Up&amp;nbsp;" style="rounded=0;whiteSpace=wrap;html=1;fillColor=#ffcd28;strokeColor=#d79b00;gradientColor=#ffa500;" parent="fA-UEe_n8p6ESNzPpI0O-24" vertex="1">
          <mxGeometry x="30" y="220" width="90" height="30" as="geometry" />
        </mxCell>
        <mxCell id="fA-UEe_n8p6ESNzPpI0O-26" value="&lt;font color=&quot;#ea6b66&quot;&gt;User Name&lt;/font&gt;" style="text;html=1;strokeColor=none;fillColor=none;align=center;verticalAlign=middle;whiteSpace=wrap;rounded=0;" parent="fA-UEe_n8p6ESNzPpI0O-24" vertex="1">
          <mxGeometry x="10" y="50" width="90" height="30" as="geometry" />
        </mxCell>
        <mxCell id="fA-UEe_n8p6ESNzPpI0O-27" value="" style="rounded=0;whiteSpace=wrap;html=1;fillColor=#f5f5f5;fontColor=#333333;strokeColor=#666666;" parent="fA-UEe_n8p6ESNzPpI0O-24" vertex="1">
          <mxGeometry x="100" y="55" width="100" height="20" as="geometry" />
        </mxCell>
        <mxCell id="fA-UEe_n8p6ESNzPpI0O-28" value="&lt;font color=&quot;#ea6b66&quot;&gt;Email&lt;/font&gt;" style="text;html=1;strokeColor=none;fillColor=none;align=center;verticalAlign=middle;whiteSpace=wrap;rounded=0;" parent="fA-UEe_n8p6ESNzPpI0O-24" vertex="1">
          <mxGeometry y="90" width="90" height="30" as="geometry" />
        </mxCell>
        <mxCell id="fA-UEe_n8p6ESNzPpI0O-29" value="" style="rounded=0;whiteSpace=wrap;html=1;fillColor=#f5f5f5;fontColor=#333333;strokeColor=#666666;" parent="fA-UEe_n8p6ESNzPpI0O-24" vertex="1">
          <mxGeometry x="100" y="95" width="100" height="20" as="geometry" />
        </mxCell>
        <mxCell id="fA-UEe_n8p6ESNzPpI0O-31" value="&lt;font color=&quot;#ea6b66&quot;&gt;Password&lt;/font&gt;" style="text;html=1;strokeColor=none;fillColor=none;align=center;verticalAlign=middle;whiteSpace=wrap;rounded=0;" parent="fA-UEe_n8p6ESNzPpI0O-24" vertex="1">
          <mxGeometry x="10" y="125" width="90" height="30" as="geometry" />
        </mxCell>
        <mxCell id="fA-UEe_n8p6ESNzPpI0O-33" value="" style="rounded=0;whiteSpace=wrap;html=1;fillColor=#f5f5f5;fontColor=#333333;strokeColor=#666666;" parent="fA-UEe_n8p6ESNzPpI0O-24" vertex="1">
          <mxGeometry x="100" y="130" width="100" height="20" as="geometry" />
        </mxCell>
        <mxCell id="fA-UEe_n8p6ESNzPpI0O-35" value="&lt;font color=&quot;#ea6b66&quot;&gt;Confirm password&lt;/font&gt;" style="text;html=1;strokeColor=none;fillColor=none;align=center;verticalAlign=middle;whiteSpace=wrap;rounded=0;" parent="fA-UEe_n8p6ESNzPpI0O-24" vertex="1">
          <mxGeometry x="10" y="170" width="80" height="30" as="geometry" />
        </mxCell>
        <mxCell id="fA-UEe_n8p6ESNzPpI0O-36" value="" style="rounded=0;whiteSpace=wrap;html=1;fillColor=#f5f5f5;fontColor=#333333;strokeColor=#666666;" parent="fA-UEe_n8p6ESNzPpI0O-24" vertex="1">
          <mxGeometry x="100" y="175" width="100" height="20" as="geometry" />
        </mxCell>
        <mxCell id="fA-UEe_n8p6ESNzPpI0O-37" value="Cancel" style="rounded=0;whiteSpace=wrap;html=1;fillColor=#ffcd28;strokeColor=#d79b00;gradientColor=#ffa500;" parent="fA-UEe_n8p6ESNzPpI0O-24" vertex="1">
          <mxGeometry x="150" y="220" width="90" height="30" as="geometry" />
        </mxCell>
        <mxCell id="fA-UEe_n8p6ESNzPpI0O-38" value="Home/ Dashboard" style="swimlane;whiteSpace=wrap;html=1;strokeColor=#A50040;fillColor=#000000;fontColor=#ffffff;" parent="1" vertex="1">
          <mxGeometry x="700" y="400" width="270" height="340" as="geometry">
            <mxRectangle x="570" y="80" width="120" height="30" as="alternateBounds" />
          </mxGeometry>
        </mxCell>
        <mxCell id="fA-UEe_n8p6ESNzPpI0O-48" value="Home&amp;nbsp;" style="rounded=0;whiteSpace=wrap;html=1;fillColor=#ffe6cc;strokeColor=#d79b00;" parent="fA-UEe_n8p6ESNzPpI0O-38" vertex="1">
          <mxGeometry x="60" y="40" width="90" height="30" as="geometry" />
        </mxCell>
        <mxCell id="fA-UEe_n8p6ESNzPpI0O-51" value="Search" style="rounded=0;whiteSpace=wrap;html=1;fillColor=#ffe6cc;strokeColor=#d79b00;" parent="fA-UEe_n8p6ESNzPpI0O-38" vertex="1">
          <mxGeometry x="60" y="90" width="90" height="30" as="geometry" />
        </mxCell>
        <mxCell id="fA-UEe_n8p6ESNzPpI0O-54" value="My Account" style="rounded=0;whiteSpace=wrap;html=1;fillColor=#ffe6cc;strokeColor=#d79b00;" parent="fA-UEe_n8p6ESNzPpI0O-38" vertex="1">
          <mxGeometry x="60" y="140" width="90" height="30" as="geometry" />
        </mxCell>
        <mxCell id="fA-UEe_n8p6ESNzPpI0O-53" value="Settings" style="rounded=0;whiteSpace=wrap;html=1;fillColor=#ffe6cc;strokeColor=#d79b00;" parent="fA-UEe_n8p6ESNzPpI0O-38" vertex="1">
          <mxGeometry x="60" y="190" width="90" height="30" as="geometry" />
        </mxCell>
        <mxCell id="fA-UEe_n8p6ESNzPpI0O-55" value="&lt;font color=&quot;#ff33ff&quot;&gt;Recommended Content&lt;/font&gt;" style="text;html=1;align=center;verticalAlign=middle;resizable=0;points=[];autosize=1;strokeColor=none;fillColor=none;" parent="fA-UEe_n8p6ESNzPpI0O-38" vertex="1">
          <mxGeometry y="240" width="150" height="30" as="geometry" />
        </mxCell>
        <mxCell id="fA-UEe_n8p6ESNzPpI0O-56" value="&lt;font color=&quot;#ff33ff&quot;&gt;Trending Now&lt;/font&gt;" style="text;html=1;align=center;verticalAlign=middle;resizable=0;points=[];autosize=1;strokeColor=none;fillColor=none;" parent="fA-UEe_n8p6ESNzPpI0O-38" vertex="1">
          <mxGeometry x="150" y="240" width="100" height="30" as="geometry" />
        </mxCell>
        <mxCell id="fA-UEe_n8p6ESNzPpI0O-57" value="" style="shape=image;verticalLabelPosition=bottom;labelBackgroundColor=default;verticalAlign=top;aspect=fixed;imageAspect=0;image=https://m.media-amazon.com/images/M/MV5BNWU5ZDRmMWItZGU0NC00NzZjLTgzYjctY2RlMzI3OTNkN2U5XkEyXkFqcGdeQXVyMTE0MTY2Mzk2._V1_.jpg;" parent="fA-UEe_n8p6ESNzPpI0O-38" vertex="1">
          <mxGeometry x="180" y="270" width="48" height="60" as="geometry" />
        </mxCell>
        <mxCell id="fA-UEe_n8p6ESNzPpI0O-58" value="" style="shape=image;verticalLabelPosition=bottom;labelBackgroundColor=default;verticalAlign=top;aspect=fixed;imageAspect=0;image=https://upload.wikimedia.org/wikipedia/en/d/d7/RRR_Poster.jpg;" parent="fA-UEe_n8p6ESNzPpI0O-38" vertex="1">
          <mxGeometry x="40" y="275" width="35.24" height="50" as="geometry" />
        </mxCell>
        <mxCell id="fA-UEe_n8p6ESNzPpI0O-59" value="Search Result Screen" style="swimlane;whiteSpace=wrap;html=1;strokeColor=#A50040;fillColor=#000000;fontColor=#ffffff;" parent="1" vertex="1">
          <mxGeometry x="240" y="820" width="215" height="250" as="geometry" />
        </mxCell>
        <mxCell id="fA-UEe_n8p6ESNzPpI0O-66" value="" style="rounded=0;whiteSpace=wrap;html=1;fillColor=#d5e8d4;strokeColor=#82b366;gradientColor=#97d077;" parent="fA-UEe_n8p6ESNzPpI0O-59" vertex="1">
          <mxGeometry x="80" y="50" width="100" height="30" as="geometry" />
        </mxCell>
        <mxCell id="fA-UEe_n8p6ESNzPpI0O-70" value="" style="whiteSpace=wrap;html=1;aspect=fixed;fillColor=#e6d0de;strokeColor=#996185;gradientColor=#d5739d;" parent="fA-UEe_n8p6ESNzPpI0O-59" vertex="1">
          <mxGeometry x="70" y="110" width="100" height="100" as="geometry" />
        </mxCell>
        <mxCell id="fA-UEe_n8p6ESNzPpI0O-71" value="List of content&lt;br&gt;&amp;nbsp;with &lt;br&gt;titles&lt;br&gt;Breif Description" style="text;html=1;align=center;verticalAlign=middle;resizable=0;points=[];autosize=1;strokeColor=none;fillColor=none;" parent="fA-UEe_n8p6ESNzPpI0O-59" vertex="1">
          <mxGeometry x="65" y="125" width="110" height="70" as="geometry" />
        </mxCell>
        <mxCell id="fA-UEe_n8p6ESNzPpI0O-69" value="&lt;font color=&quot;#660033&quot;&gt;Search&lt;/font&gt;" style="text;html=1;align=center;verticalAlign=middle;resizable=0;points=[];autosize=1;strokeColor=none;fillColor=none;" parent="fA-UEe_n8p6ESNzPpI0O-59" vertex="1">
          <mxGeometry x="10" y="50" width="60" height="30" as="geometry" />
        </mxCell>
        <mxCell id="fA-UEe_n8p6ESNzPpI0O-72" value="Content Detail Screen&amp;nbsp;" style="swimlane;whiteSpace=wrap;html=1;strokeColor=#A50040;fillColor=#000000;fontColor=#ffffff;" parent="1" vertex="1">
          <mxGeometry x="550" y="820" width="240" height="270" as="geometry" />
        </mxCell>
        <mxCell id="fA-UEe_n8p6ESNzPpI0O-78" value="Play" style="rounded=0;whiteSpace=wrap;html=1;fillColor=#0050ef;fontColor=#ffffff;strokeColor=#001DBC;" parent="fA-UEe_n8p6ESNzPpI0O-72" vertex="1">
          <mxGeometry x="10" y="105" width="80" height="25" as="geometry" />
        </mxCell>
        <mxCell id="fA-UEe_n8p6ESNzPpI0O-79" value="Description of the &lt;br&gt;Movie" style="text;html=1;align=center;verticalAlign=middle;resizable=0;points=[];autosize=1;strokeColor=none;fillColor=none;" parent="fA-UEe_n8p6ESNzPpI0O-72" vertex="1">
          <mxGeometry x="80" y="40" width="120" height="40" as="geometry" />
        </mxCell>
        <mxCell id="fA-UEe_n8p6ESNzPpI0O-80" value="Add to Watchlist" style="rounded=0;whiteSpace=wrap;html=1;fillColor=#0050ef;fontColor=#ffffff;strokeColor=#001DBC;" parent="fA-UEe_n8p6ESNzPpI0O-72" vertex="1">
          <mxGeometry x="100" y="105" width="80" height="25" as="geometry" />
        </mxCell>
        <mxCell id="fA-UEe_n8p6ESNzPpI0O-81" value="Rate" style="rounded=0;whiteSpace=wrap;html=1;fillColor=#0050ef;fontColor=#ffffff;strokeColor=#001DBC;" parent="fA-UEe_n8p6ESNzPpI0O-72" vertex="1">
          <mxGeometry x="20" y="157.5" width="50" height="25" as="geometry" />
        </mxCell>
        <mxCell id="fA-UEe_n8p6ESNzPpI0O-82" value="" style="verticalLabelPosition=bottom;verticalAlign=top;html=1;shape=mxgraph.basic.4_point_star_2;dx=0.76;" parent="fA-UEe_n8p6ESNzPpI0O-72" vertex="1">
          <mxGeometry x="80" y="160" width="20" height="20" as="geometry" />
        </mxCell>
        <mxCell id="fA-UEe_n8p6ESNzPpI0O-83" value="" style="verticalLabelPosition=bottom;verticalAlign=top;html=1;shape=mxgraph.basic.4_point_star_2;dx=0.76;" parent="fA-UEe_n8p6ESNzPpI0O-72" vertex="1">
          <mxGeometry x="110" y="160" width="20" height="20" as="geometry" />
        </mxCell>
        <mxCell id="fA-UEe_n8p6ESNzPpI0O-85" value="" style="verticalLabelPosition=bottom;verticalAlign=top;html=1;shape=mxgraph.basic.4_point_star_2;dx=0.76;" parent="fA-UEe_n8p6ESNzPpI0O-72" vertex="1">
          <mxGeometry x="140" y="160" width="20" height="20" as="geometry" />
        </mxCell>
        <mxCell id="fA-UEe_n8p6ESNzPpI0O-86" value="" style="verticalLabelPosition=bottom;verticalAlign=top;html=1;shape=mxgraph.basic.4_point_star_2;dx=0.76;" parent="fA-UEe_n8p6ESNzPpI0O-72" vertex="1">
          <mxGeometry x="170" y="160" width="20" height="20" as="geometry" />
        </mxCell>
        <mxCell id="fA-UEe_n8p6ESNzPpI0O-87" value="" style="verticalLabelPosition=bottom;verticalAlign=top;html=1;shape=mxgraph.basic.smiley;fillColor=#60a917;fontColor=#ffffff;strokeColor=#2D7600;" parent="fA-UEe_n8p6ESNzPpI0O-72" vertex="1">
          <mxGeometry x="15" y="40" width="60" height="50" as="geometry" />
        </mxCell>
        <mxCell id="fA-UEe_n8p6ESNzPpI0O-88" value="Account/ Subscription Screen" style="swimlane;whiteSpace=wrap;html=1;strokeColor=#A50040;fillColor=#000000;fontColor=#ffffff;" parent="1" vertex="1">
          <mxGeometry x="880" y="820" width="220" height="250" as="geometry" />
        </mxCell>
        <mxCell id="fA-UEe_n8p6ESNzPpI0O-92" value="&lt;font color=&quot;#b266ff&quot;&gt;Details about Current&lt;br&gt;&amp;nbsp;Subscription&lt;/font&gt;" style="text;html=1;align=center;verticalAlign=middle;resizable=0;points=[];autosize=1;strokeColor=none;fillColor=none;" parent="fA-UEe_n8p6ESNzPpI0O-88" vertex="1">
          <mxGeometry x="40" y="40" width="140" height="40" as="geometry" />
        </mxCell>
        <mxCell id="fA-UEe_n8p6ESNzPpI0O-93" value="Change&amp;nbsp;&lt;br&gt;Plan" style="rounded=1;whiteSpace=wrap;html=1;fillColor=#f8cecc;strokeColor=#b85450;gradientColor=#ea6b66;" parent="fA-UEe_n8p6ESNzPpI0O-88" vertex="1">
          <mxGeometry x="30" y="100" width="80" height="37.5" as="geometry" />
        </mxCell>
        <mxCell id="fA-UEe_n8p6ESNzPpI0O-94" value="Update&amp;nbsp;&lt;br&gt;Payment" style="rounded=1;whiteSpace=wrap;html=1;fillColor=#f8cecc;strokeColor=#b85450;gradientColor=#ea6b66;" parent="fA-UEe_n8p6ESNzPpI0O-88" vertex="1">
          <mxGeometry x="120" y="100" width="80" height="37.5" as="geometry" />
        </mxCell>
        <mxCell id="fA-UEe_n8p6ESNzPpI0O-95" value="Cancel&amp;nbsp;&lt;br&gt;Subscription" style="rounded=1;whiteSpace=wrap;html=1;fillColor=#f8cecc;strokeColor=#b85450;gradientColor=#ea6b66;" parent="fA-UEe_n8p6ESNzPpI0O-88" vertex="1">
          <mxGeometry x="70" y="160" width="80" height="37.5" as="geometry" />
        </mxCell>
        <mxCell id="fA-UEe_n8p6ESNzPpI0O-100" value="Settings Screen" style="swimlane;whiteSpace=wrap;html=1;strokeColor=#A50040;fillColor=#000000;fontColor=#ffffff;" parent="1" vertex="1">
          <mxGeometry x="1080" y="340" width="215" height="250" as="geometry" />
        </mxCell>
        <mxCell id="fA-UEe_n8p6ESNzPpI0O-105" value="Device Management" style="rounded=1;whiteSpace=wrap;html=1;fillColor=#dae8fc;gradientColor=#7ea6e0;strokeColor=#6c8ebf;" parent="fA-UEe_n8p6ESNzPpI0O-100" vertex="1">
          <mxGeometry x="47.5" y="45" width="120" height="30" as="geometry" />
        </mxCell>
        <mxCell id="fA-UEe_n8p6ESNzPpI0O-106" value="WiFi Connect" style="rounded=1;whiteSpace=wrap;html=1;fillColor=#dae8fc;gradientColor=#7ea6e0;strokeColor=#6c8ebf;" parent="fA-UEe_n8p6ESNzPpI0O-100" vertex="1">
          <mxGeometry x="47.5" y="95" width="120" height="30" as="geometry" />
        </mxCell>
        <mxCell id="fA-UEe_n8p6ESNzPpI0O-107" value="Help &amp;amp; Support" style="rounded=1;whiteSpace=wrap;html=1;fillColor=#dae8fc;gradientColor=#7ea6e0;strokeColor=#6c8ebf;" parent="fA-UEe_n8p6ESNzPpI0O-100" vertex="1">
          <mxGeometry x="47.5" y="150" width="120" height="30" as="geometry" />
        </mxCell>
        <mxCell id="0HBHXteLJCIKj55_VPi_-6" value="Log Out" style="rounded=1;whiteSpace=wrap;html=1;fillColor=#dae8fc;gradientColor=#7ea6e0;strokeColor=#6c8ebf;" vertex="1" parent="fA-UEe_n8p6ESNzPpI0O-100">
          <mxGeometry x="47.5" y="200" width="120" height="30" as="geometry" />
        </mxCell>
        <mxCell id="fA-UEe_n8p6ESNzPpI0O-108" value="" style="endArrow=classic;startArrow=classic;html=1;rounded=0;entryX=0;entryY=0.5;entryDx=0;entryDy=0;exitX=1;exitY=0.5;exitDx=0;exitDy=0;" parent="1" source="fA-UEe_n8p6ESNzPpI0O-1" target="fA-UEe_n8p6ESNzPpI0O-8" edge="1">
          <mxGeometry width="50" height="50" relative="1" as="geometry">
            <mxPoint x="570" y="240" as="sourcePoint" />
            <mxPoint x="620" y="190" as="targetPoint" />
          </mxGeometry>
        </mxCell>
        <mxCell id="fA-UEe_n8p6ESNzPpI0O-109" value="" style="curved=1;endArrow=classic;html=1;rounded=0;exitX=1;exitY=0.5;exitDx=0;exitDy=0;" parent="1" source="fA-UEe_n8p6ESNzPpI0O-1" edge="1">
          <mxGeometry width="50" height="50" relative="1" as="geometry">
            <mxPoint x="500" y="180" as="sourcePoint" />
            <mxPoint x="540" y="400" as="targetPoint" />
            <Array as="points">
              <mxPoint x="550" y="270" />
            </Array>
          </mxGeometry>
        </mxCell>
        <mxCell id="fA-UEe_n8p6ESNzPpI0O-112" value="" style="endArrow=classic;startArrow=classic;html=1;rounded=0;entryX=0;entryY=0.5;entryDx=0;entryDy=0;" parent="1" target="fA-UEe_n8p6ESNzPpI0O-8" edge="1">
          <mxGeometry width="50" height="50" relative="1" as="geometry">
            <mxPoint x="540" y="400" as="sourcePoint" />
            <mxPoint x="660" y="220" as="targetPoint" />
            <Array as="points">
              <mxPoint x="590" y="270" />
            </Array>
          </mxGeometry>
        </mxCell>
        <mxCell id="fA-UEe_n8p6ESNzPpI0O-114" value="" style="curved=1;endArrow=classic;html=1;rounded=0;" parent="1" edge="1">
          <mxGeometry width="50" height="50" relative="1" as="geometry">
            <mxPoint x="750" y="190" as="sourcePoint" />
            <mxPoint x="700" y="510" as="targetPoint" />
            <Array as="points">
              <mxPoint x="630" y="320" />
            </Array>
          </mxGeometry>
        </mxCell>
        <mxCell id="fA-UEe_n8p6ESNzPpI0O-116" value="" style="curved=1;endArrow=classic;html=1;rounded=0;entryX=0.297;entryY=0.001;entryDx=0;entryDy=0;entryPerimeter=0;" parent="1" target="fA-UEe_n8p6ESNzPpI0O-72" edge="1">
          <mxGeometry width="50" height="50" relative="1" as="geometry">
            <mxPoint x="700" y="510" as="sourcePoint" />
            <mxPoint x="670" y="690" as="targetPoint" />
            <Array as="points">
              <mxPoint x="620" y="690" />
            </Array>
          </mxGeometry>
        </mxCell>
        <mxCell id="fA-UEe_n8p6ESNzPpI0O-119" value="" style="curved=1;endArrow=classic;html=1;rounded=0;entryX=0.5;entryY=0;entryDx=0;entryDy=0;" parent="1" target="fA-UEe_n8p6ESNzPpI0O-88" edge="1">
          <mxGeometry width="50" height="50" relative="1" as="geometry">
            <mxPoint x="970" y="540" as="sourcePoint" />
            <mxPoint x="1370" y="973.2000122070312" as="targetPoint" />
            <Array as="points">
              <mxPoint x="1090" y="690" />
            </Array>
          </mxGeometry>
        </mxCell>
        <mxCell id="fA-UEe_n8p6ESNzPpI0O-121" value="" style="endArrow=classic;html=1;rounded=0;" parent="1" edge="1">
          <mxGeometry width="50" height="50" relative="1" as="geometry">
            <mxPoint x="970" y="540" as="sourcePoint" />
            <mxPoint x="1080" y="520" as="targetPoint" />
          </mxGeometry>
        </mxCell>
        <mxCell id="fA-UEe_n8p6ESNzPpI0O-122" value="" style="curved=1;endArrow=classic;html=1;rounded=0;entryX=1;entryY=0.25;entryDx=0;entryDy=0;" parent="1" target="fA-UEe_n8p6ESNzPpI0O-59" edge="1">
          <mxGeometry width="50" height="50" relative="1" as="geometry">
            <mxPoint x="700" y="510" as="sourcePoint" />
            <mxPoint x="460" y="900" as="targetPoint" />
            <Array as="points">
              <mxPoint x="540" y="800" />
            </Array>
          </mxGeometry>
        </mxCell>
        <mxCell id="fA-UEe_n8p6ESNzPpI0O-123" value="" style="endArrow=classic;html=1;rounded=0;exitX=1;exitY=0.25;exitDx=0;exitDy=0;" parent="1" source="fA-UEe_n8p6ESNzPpI0O-59" edge="1">
          <mxGeometry width="50" height="50" relative="1" as="geometry">
            <mxPoint x="460" y="900" as="sourcePoint" />
            <mxPoint x="550" y="920" as="targetPoint" />
          </mxGeometry>
        </mxCell>
        <mxCell id="0HBHXteLJCIKj55_VPi_-12" value="Tool Tip Screen" style="swimlane;whiteSpace=wrap;html=1;strokeColor=#A50040;fillColor=#000000;fontColor=#ffffff;" vertex="1" parent="1">
          <mxGeometry x="1400" y="150" width="240" height="300" as="geometry" />
        </mxCell>
        <mxCell id="0HBHXteLJCIKj55_VPi_-13" value="Help&amp;nbsp;" style="rounded=1;whiteSpace=wrap;html=1;fillColor=#dae8fc;gradientColor=#7ea6e0;strokeColor=#6c8ebf;" vertex="1" parent="0HBHXteLJCIKj55_VPi_-12">
          <mxGeometry x="47.5" y="45" width="122.5" height="30" as="geometry" />
        </mxCell>
        <mxCell id="0HBHXteLJCIKj55_VPi_-14" value="Device Management" style="rounded=1;whiteSpace=wrap;html=1;fillColor=#dae8fc;gradientColor=#7ea6e0;strokeColor=#6c8ebf;" vertex="1" parent="0HBHXteLJCIKj55_VPi_-12">
          <mxGeometry x="47.5" y="95" width="120" height="30" as="geometry" />
        </mxCell>
        <mxCell id="0HBHXteLJCIKj55_VPi_-15" value="Term &amp;amp; Conditions" style="rounded=1;whiteSpace=wrap;html=1;fillColor=#dae8fc;gradientColor=#7ea6e0;strokeColor=#6c8ebf;" vertex="1" parent="0HBHXteLJCIKj55_VPi_-12">
          <mxGeometry x="47.5" y="150" width="120" height="30" as="geometry" />
        </mxCell>
        <mxCell id="0HBHXteLJCIKj55_VPi_-16" value="Privacy Policy" style="rounded=1;whiteSpace=wrap;html=1;fillColor=#dae8fc;gradientColor=#7ea6e0;strokeColor=#6c8ebf;" vertex="1" parent="0HBHXteLJCIKj55_VPi_-12">
          <mxGeometry x="47.5" y="200" width="120" height="30" as="geometry" />
        </mxCell>
        <mxCell id="0HBHXteLJCIKj55_VPi_-26" value="&lt;font color=&quot;#660033&quot; style=&quot;font-size: 19px;&quot;&gt;?&lt;/font&gt;" style="text;html=1;align=center;verticalAlign=middle;resizable=0;points=[];autosize=1;strokeColor=none;fillColor=none;" vertex="1" parent="0HBHXteLJCIKj55_VPi_-12">
          <mxGeometry x="130" y="40" width="30" height="40" as="geometry" />
        </mxCell>
        <mxCell id="0HBHXteLJCIKj55_VPi_-19" value="Context Assistance Screen" style="swimlane;whiteSpace=wrap;html=1;strokeColor=#A50040;fillColor=#000000;fontColor=#ffffff;startSize=23;" vertex="1" parent="1">
          <mxGeometry x="1360" y="650" width="240" height="300" as="geometry" />
        </mxCell>
        <mxCell id="0HBHXteLJCIKj55_VPi_-20" value="FAQ Section&amp;nbsp;" style="rounded=1;whiteSpace=wrap;html=1;fillColor=#dae8fc;gradientColor=#7ea6e0;strokeColor=#6c8ebf;" vertex="1" parent="0HBHXteLJCIKj55_VPi_-19">
          <mxGeometry x="47.5" y="45" width="122.5" height="30" as="geometry" />
        </mxCell>
        <mxCell id="0HBHXteLJCIKj55_VPi_-21" value="Contact Support" style="rounded=1;whiteSpace=wrap;html=1;fillColor=#dae8fc;gradientColor=#7ea6e0;strokeColor=#6c8ebf;" vertex="1" parent="0HBHXteLJCIKj55_VPi_-19">
          <mxGeometry x="47.5" y="95" width="120" height="30" as="geometry" />
        </mxCell>
        <mxCell id="0HBHXteLJCIKj55_VPi_-22" value="Community Access" style="rounded=1;whiteSpace=wrap;html=1;fillColor=#dae8fc;gradientColor=#7ea6e0;strokeColor=#6c8ebf;" vertex="1" parent="0HBHXteLJCIKj55_VPi_-19">
          <mxGeometry x="47.5" y="150" width="120" height="30" as="geometry" />
        </mxCell>
        <mxCell id="0HBHXteLJCIKj55_VPi_-23" value="Feedback" style="rounded=1;whiteSpace=wrap;html=1;fillColor=#dae8fc;gradientColor=#7ea6e0;strokeColor=#6c8ebf;" vertex="1" parent="0HBHXteLJCIKj55_VPi_-19">
          <mxGeometry x="47.5" y="200" width="120" height="30" as="geometry" />
        </mxCell>
        <mxCell id="0HBHXteLJCIKj55_VPi_-28" value="Back to Menu" style="rounded=1;whiteSpace=wrap;html=1;fillColor=#dae8fc;gradientColor=#7ea6e0;strokeColor=#6c8ebf;" vertex="1" parent="0HBHXteLJCIKj55_VPi_-19">
          <mxGeometry x="50" y="250" width="120" height="30" as="geometry" />
        </mxCell>
        <mxCell id="0HBHXteLJCIKj55_VPi_-27" value="" style="curved=1;endArrow=classic;html=1;rounded=0;entryX=0;entryY=0.25;entryDx=0;entryDy=0;" edge="1" parent="1" source="fA-UEe_n8p6ESNzPpI0O-100" target="0HBHXteLJCIKj55_VPi_-12">
          <mxGeometry width="50" height="50" relative="1" as="geometry">
            <mxPoint x="1188" y="420" as="sourcePoint" />
            <mxPoint x="1110" y="260" as="targetPoint" />
            <Array as="points">
              <mxPoint x="1110" y="310" />
            </Array>
          </mxGeometry>
        </mxCell>
        <mxCell id="0HBHXteLJCIKj55_VPi_-29" value="" style="curved=1;endArrow=classic;html=1;rounded=0;exitX=0.75;exitY=1;exitDx=0;exitDy=0;entryX=0;entryY=0.25;entryDx=0;entryDy=0;" edge="1" parent="1" source="fA-UEe_n8p6ESNzPpI0O-100" target="0HBHXteLJCIKj55_VPi_-19">
          <mxGeometry width="50" height="50" relative="1" as="geometry">
            <mxPoint x="1230" y="650" as="sourcePoint" />
            <mxPoint x="1360" y="710" as="targetPoint" />
            <Array as="points">
              <mxPoint x="1260" y="650" />
              <mxPoint x="1290" y="720" />
            </Array>
          </mxGeometry>
        </mxCell>
        <mxCell id="0HBHXteLJCIKj55_VPi_-30" value="" style="curved=1;endArrow=classic;html=1;rounded=0;exitX=0;exitY=0.25;exitDx=0;exitDy=0;" edge="1" parent="1" source="0HBHXteLJCIKj55_VPi_-19">
          <mxGeometry width="50" height="50" relative="1" as="geometry">
            <mxPoint x="1090" y="740" as="sourcePoint" />
            <mxPoint x="980" y="540" as="targetPoint" />
            <Array as="points">
              <mxPoint x="1090" y="690" />
            </Array>
          </mxGeometry>
        </mxCell>
        <mxCell id="0HBHXteLJCIKj55_VPi_-31" value="" style="curved=1;endArrow=classic;html=1;rounded=0;entryX=0.319;entryY=-0.004;entryDx=0;entryDy=0;entryPerimeter=0;exitX=0;exitY=0.25;exitDx=0;exitDy=0;" edge="1" parent="1" source="0HBHXteLJCIKj55_VPi_-12" target="0HBHXteLJCIKj55_VPi_-19">
          <mxGeometry width="50" height="50" relative="1" as="geometry">
            <mxPoint x="1310" y="510" as="sourcePoint" />
            <mxPoint x="1360" y="460" as="targetPoint" />
            <Array as="points">
              <mxPoint x="1310" y="460" />
            </Array>
          </mxGeometry>
        </mxCell>
      </root>
    </mxGraphModel>
  </diagram>
</mxfile>
